<?xml version="1.0" encoding="UTF-8"?>
<svg width="30px" height="30px" viewBox="0 0 30 30" version="1.1" xmlns="http://www.w3.org/2000/svg" xmlns:xlink="http://www.w3.org/1999/xlink">
    <!-- Generator: Sketch 52 (66869) - http://www.bohemiancoding.com/sketch -->
    <title>aboutus</title>
    <desc>Created with Sketch.</desc>
    <g id="aboutus" stroke="none" stroke-width="1" fill="none" fill-rule="evenodd">
        <g fill="#00F6FF" fill-rule="nonzero" id="形状">
            <path d="M15.0084509,29.9772538 C6.73670292,29.9772538 0.0312315101,23.2716793 0.0312315101,15.0000344 C0.0312315101,6.7283894 6.73670292,0.0227462416 15.0084509,0.0227462416 C23.2801302,0.0227462416 29.9856703,6.72838936 29.9856703,15.0000343 C29.9856703,23.2716793 23.2801302,29.9772538 15.0084509,29.9772538 Z M15.0084509,6.59817537 C13.9997045,6.59817537 13.1819523,7.41592752 13.1819523,8.42460523 C13.1819523,9.4334203 13.9997045,10.2511724 15.0084509,10.2511724 C16.0171973,10.2511724 16.8349495,9.4334203 16.8349495,8.42460523 C16.8349495,7.41592752 16.0171973,6.59817537 15.0084509,6.59817537 Z M16.8349495,13.9041352 C16.8349495,13.0971312 16.1806859,12.4429364 15.3737506,12.4429364 L14.6431512,12.4429364 C13.8361472,12.4429364 13.1819524,13.0970969 13.1819524,13.9041352 L13.1819524,22.6712939 C13.1819524,23.4782292 13.8361129,24.1324927 14.6431512,24.1324927 L15.3737506,24.1324927 C16.1806859,24.1324927 16.8349495,23.4782292 16.8349495,22.6712939 L16.8349495,13.9041352 Z"></path>
        </g>
    </g>
</svg>