<?xml version="1.0" encoding="UTF-8"?>
<svg width="20px" height="20px" viewBox="0 0 20 20" version="1.1" xmlns="http://www.w3.org/2000/svg" xmlns:xlink="http://www.w3.org/1999/xlink">
    <!-- Generator: Sketch 52 (66869) - http://www.bohemiancoding.com/sketch -->
    <title>applyforfix</title>
    <desc>Created with Sketch.</desc>
    <g id="applyforfix" stroke="none" stroke-width="1" fill="none" fill-rule="evenodd">
        <g transform="translate(9.656250, 10.000000) scale(-1, 1) translate(-9.656250, -10.000000) translate(-0.343750, 0.000000)" fill="#132F46" fill-rule="nonzero" id="形状">
            <path d="M14.0094717,15.0946767 C13.8361826,15.0946767 13.6813777,15.069261 13.5658516,15.0369137 C13.4896044,15.016119 13.4179783,14.9745296 13.3625257,14.9167665 L10.4628214,12.0170622 C10.358848,11.9130888 10.310327,11.7652154 10.3311217,11.617342 L10.3680901,11.3654952 L8.0460161,9.05959488 C7.89814272,9.00645288 7.72485364,8.97179507 7.61394859,9.04111071 C7.42217531,9.16356835 7.32513342,9.58177271 7.31820186,9.77816702 C7.31358081,9.89600361 7.26505986,10.0069086 7.1818811,10.0900874 L6.49796679,10.7740017 C6.3154356,10.9565329 6.01968885,10.9565329 5.83715767,10.7740017 L4.43236068,9.36920475 C4.34456087,9.28140494 4.29603992,9.16356835 4.29603992,9.03880019 C4.29603992,8.91403204 4.34456087,8.79619545 4.43236068,8.70839564 L5.20638534,7.93437098 C5.30111671,7.83963961 5.43281643,7.78880814 5.56913719,7.79805022 C5.67773169,7.80729229 5.82098401,7.80036073 5.89029965,7.73104509 C5.97578895,7.64093477 5.97578895,7.44222993 5.97347844,7.41681419 C5.95961531,7.2989776 5.99196261,7.18114101 6.06358876,7.08640964 C7.49842253,5.15481379 8.66292528,4.94224582 8.93787735,4.9191406 C10.2271483,4.69502003 11.6596715,5.30730819 11.7197451,5.33272392 C11.8606869,5.395108 11.9646603,5.52218666 11.9923866,5.67468109 C12.0224234,5.82717549 11.9739024,5.98198042 11.8629974,6.09288545 L11.3061617,6.65203161 C11.2160514,6.74445247 11.0912833,6.79297342 10.9618941,6.78835238 C9.76273347,6.74907352 9.37918691,7.13262006 9.30293971,7.22966196 L11.9831445,9.92604039 L12.3066175,9.96300874 C12.4082804,9.97456135 12.5053223,10.0184613 12.579259,10.0900874 L15.5321053,12.9343392 C15.6199051,13.0198285 15.6707366,13.1353546 15.6753576,13.2578122 C15.6961523,14.0433895 15.2964321,14.4823885 15.1624219,14.6071567 C14.8227753,14.9837717 14.3768446,15.0946767 14.0094717,15.0946767 Z M13.9193614,14.1542945 C14.0579927,14.1681576 14.3098395,14.1635366 14.471576,13.9763843 C14.4900602,13.9555897 14.5085443,13.9371055 14.5316496,13.9186213 C14.5316496,13.9186213 14.688765,13.7707479 14.7303544,13.4634486 L12.0432181,10.8756647 L11.715124,10.8386963 C11.60884,10.8271437 11.5094876,10.7786228 11.4355509,10.7046861 L8.57743601,7.828087 C8.4572889,7.73335563 8.3371418,7.57161913 8.30710499,7.36367219 C8.28631031,7.22041987 8.30248395,7.00554139 8.47808359,6.7791103 C8.60516226,6.56423182 9.04878236,6.00739616 10.2733587,5.87800695 C9.8967437,5.80869132 9.46929724,5.77403349 9.07650863,5.84565966 C9.05109289,5.85028071 9.02567716,5.85259122 8.99795089,5.85259122 C9.00257194,5.85259122 8.11995276,5.93808052 6.90230801,7.52078766 C6.8907554,7.74490824 6.82837132,8.10303904 6.56035086,8.38030159 C6.41016698,8.53741704 6.14907806,8.71301666 5.72625264,8.73612188 L5.42126382,9.04111071 L6.16525169,9.78509858 L6.40092488,9.54942542 C6.4471353,9.22133138 6.59962972,8.57669592 7.11487597,8.25322293 C7.3782754,8.08686538 7.82882706,7.95054464 8.49194671,8.23242824 C8.54508871,8.25553346 8.59592018,8.28788076 8.63750955,8.32947013 L11.1952567,10.8687331 C11.3015407,10.9727066 11.3500616,11.1228905 11.329267,11.2684533 L11.2922986,11.5226107 L13.9193614,14.1542945 Z"></path>
            <path d="M9.982233,19.9513926 C4.48550266,19.9513926 0.0123333183,15.4782232 0.0123333183,9.98149291 C0.0123333183,4.4847626 4.48550266,0.0115932307 9.982233,0.0115932307 C15.4789633,0.0115932307 19.9521327,4.4847626 19.9521327,9.98149291 C19.9521327,15.4782232 15.4789633,19.9513926 9.982233,19.9513926 Z M9.982233,1.25696423 C5.17172751,1.25696423 1.25770432,5.17098742 1.25770432,9.98149291 C1.25770432,14.7919984 5.17172751,18.7060216 9.982233,18.7060216 C14.7927385,18.7060215 18.7067617,14.7919984 18.7067617,9.98149291 C18.7067616,5.17098745 14.7927385,1.25696423 9.982233,1.25696423 Z"></path>
        </g>
    </g>
</svg>