<?xml version="1.0" encoding="UTF-8"?>
<svg width="20px" height="18px" viewBox="0 0 20 18" version="1.1" xmlns="http://www.w3.org/2000/svg" xmlns:xlink="http://www.w3.org/1999/xlink">
    <!-- Generator: Sketch 52 (66869) - http://www.bohemiancoding.com/sketch -->
    <title>attention</title>
    <desc>Created with Sketch.</desc>
    <g id="attention" stroke="none" stroke-width="1" fill="none" fill-rule="evenodd">
        <g fill="#950000" fill-rule="nonzero" id="形状">
            <path d="M19.7652867,15.4857343 L19.7652867,15.4829217 L11.2241058,0.68919471 L11.2226474,0.68919471 C11.115768,0.295428688 10.627519,0 10.041141,0 C9.45049195,0 8.96390965,0.302512309 8.86119713,0.700549339 L0.118862241,15.8409571 L0.126050034,15.8509575 C-0.0737497627,16.0492989 -0.0352065277,16.5201514 0.235846168,16.9596484 C0.508461428,17.4077917 0.919311478,17.6574893 1.18473895,17.5546726 L1.19473935,17.5702983 L18.8906677,17.5702983 L18.9006681,17.547589 C19.1960968,17.5932159 19.5598616,17.3334136 19.7867459,16.8711032 C20.0520692,16.3389982 20.0349851,15.739703 19.7652867,15.4857343 Z M8.80275726,5.34073815 C8.80275726,4.68581567 9.33496641,4.1550649 9.9884305,4.1550649 C10.6448114,4.1550649 11.1742079,4.68581567 11.1742079,5.34073815 L11.1742079,11.4520285 C11.1742079,12.1053884 10.6448114,12.6377017 9.9884305,12.6377017 C9.33496641,12.6377017 8.80275726,12.1054926 8.80275726,11.4520285 L8.80275726,5.34073815 Z M9.98853467,16.007943 C9.27652653,16.007943 8.69869052,15.4300028 8.69869052,14.7166405 C8.69869052,14.0045282 9.27652653,13.4295048 9.98853467,13.4295048 C10.7005428,13.4295048 11.2782747,14.0046323 11.2782747,14.7166405 C11.2782747,15.4285445 10.7005428,16.007943 9.98853467,16.007943 Z"></path>
        </g>
    </g>
</svg>