<?xml version="1.0" encoding="UTF-8"?>
<svg width="30px" height="30px" viewBox="0 0 30 30" version="1.1" xmlns="http://www.w3.org/2000/svg" xmlns:xlink="http://www.w3.org/1999/xlink">
    <!-- Generator: Sketch 52 (66869) - http://www.bohemiancoding.com/sketch -->
    <title>back</title>
    <desc>Created with Sketch.</desc>
    <g id="back" stroke="none" stroke-width="1" fill="none" fill-rule="evenodd">
        <g fill="#FFFFFF" fill-rule="nonzero" id="Shape">
            <path d="M21.316777,13.5050433 L12.2646269,13.5050433 L16.0695306,9.71356433 C16.6705705,9.13069422 16.6839988,8.17311989 16.0995378,7.57375959 C15.8109634,7.29307828 15.4222251,7.13811027 15.0188943,7.142968 C14.6155635,7.14782572 14.2307018,7.31211098 13.949027,7.59966039 L7.61752308,13.9075019 C7.60351975,13.9194561 7.58551547,13.9234409 7.57151215,13.9373875 C7.28703717,14.2233979 7.13236681,14.612826 7.14341046,15.0152593 C7.14341046,15.3958019 7.28344373,15.7763444 7.57351262,16.0632456 C7.58551547,16.0751998 7.60151928,16.0791846 7.61352213,16.0891464 L13.949027,22.3989803 C14.55117,22.9966912 15.5133985,23.0126301 16.0995378,22.4288659 C16.6839988,21.8295056 16.6705705,20.8719312 16.0695306,20.2890611 L12.2626264,16.4935974 L21.316777,16.4935974 C22.1669789,16.4935974 22.8571429,15.8241613 22.8571429,14.9993204 C22.8571429,14.1744794 22.1669789,13.5050433 21.316777,13.5050433 Z"></path>
            <path d="M15.0000001,1.33562312e-07 C11.0215901,-0.000530427218 7.20597316,1.57965179 4.39281248,4.39281248 C1.57965179,7.20597316 -0.000530427218,11.0215901 1.33562284e-07,15.0000001 C1.33562284e-07,23.286 6.7140001,30 15.0000001,30 C23.286,30 30,23.286 30,15.0000001 C30,6.7140001 23.286,1.33562312e-07 15.0000001,1.33562312e-07 Z M15.0000001,27 C10.712813,27.0000001 6.75128869,24.712813 4.60769512,21.0000001 C2.46410155,17.2871872 2.46410155,12.712813 4.60769512,9.00000004 C6.75128869,5.28718711 10.712813,3.00000006 15.0000001,3.00000012 C21.627417,3.00000022 26.9999998,8.37258317 26.9999998,15.0000001 C26.9999998,21.627417 21.627417,26.9999999 15.0000001,27 Z"></path>
        </g>
    </g>
</svg>