<?xml version="1.0" encoding="UTF-8"?>
<svg width="340px" height="105px" viewBox="0 0 340 105" version="1.1" xmlns="http://www.w3.org/2000/svg" xmlns:xlink="http://www.w3.org/1999/xlink">
    <!-- Generator: Sketch 52 (66869) - http://www.bohemiancoding.com/sketch -->
    <title>billlist_bg</title>
    <desc>Created with Sketch.</desc>
    <g id="billlist_bg" stroke="none" stroke-width="1" fill="none" fill-rule="evenodd">
        <path d="M338.970046,105 L332.5,101 L326.029954,105 L325.970046,105 L319.5,101 L313.029954,105 L312.970046,105 L306.5,101 L300.029954,105 L299.970046,105 L293.5,101 L287.029954,105 L286.970046,105 L280.5,101 L274.029954,105 L273.970046,105 L267.5,101 L261.029954,105 L259.970046,105 L253.5,101 L247.029954,105 L246.970046,105 L240.5,101 L234.029954,105 L233.970046,105 L227.5,101 L221.029954,105 L220.970046,105 L214.5,101 L208.029954,105 L207.970046,105 L201.5,101 L195.029954,105 L194.970046,105 L188.5,101 L182.029954,105 L181.970046,105 L175.5,101 L169.029954,105 L168.970046,105 L162.5,101 L156.029954,105 L154.970046,105 L148.5,101 L142.029954,105 L141.970046,105 L135.5,101 L129.029954,105 L128.970046,105 L122.5,101 L116.029954,105 L115.970046,105 L109.5,101 L103.029954,105 L102.970046,105 L96.5,101 L90.0299539,105 L89.9700461,105 L83.5,101 L77.0299539,105 L76.9700461,105 L70.5,101 L64.0299539,105 L63.9700461,105 L57.5,101 L51.0299539,105 L49.9700461,105 L43.5,101 L37.0299539,105 L36.9700461,105 L30.5,101 L24.0299539,105 L23.9700461,105 L17.5,101 L11.0299539,105 L10.9700461,105 L4.5,101 L6.21724894e-15,103.782051 L0,0 L340,0 L340,105 L338.970046,105 Z" id="合并形状" fill="#325163" fill-rule="nonzero"></path>
    </g>
</svg>