<?xml version="1.0" encoding="UTF-8"?>
<svg width="30px" height="30px" viewBox="0 0 30 30" version="1.1" xmlns="http://www.w3.org/2000/svg" xmlns:xlink="http://www.w3.org/1999/xlink">
    <!-- Generator: Sketch 52 (66869) - http://www.bohemiancoding.com/sketch -->
    <title>bill</title>
    <desc>Created with Sketch.</desc>
    <g id="bill" stroke="none" stroke-width="1" fill="none" fill-rule="evenodd">
        <g fill="#00F6FF">
            <path d="M18.9729578,18.3973652 L10.9400155,18.3973652 C10.8223239,18.3973652 10.7269371,18.4927862 10.7269371,18.6104093 L10.7269371,19.1184534 C10.7269371,19.2362135 10.8223239,19.3316003 10.9400155,19.3316003 L18.9729578,19.3316003 C19.0906836,19.3316003 19.1860704,19.2362136 19.1860704,19.1184534 L19.1860704,18.6104093 C19.1860704,18.4927862 19.0906494,18.3973652 18.9729578,18.3973652 Z" id="路径"></path>
            <path d="M18.9729578,12.5371441 L10.9400155,12.5371441 C10.8223239,12.5371441 10.7269371,12.6325308 10.7269371,12.7502225 L10.7269371,13.2582323 C10.7269371,13.3759582 10.8223239,13.471345 10.9400155,13.471345 L18.9729578,13.471345 C19.0906836,13.471345 19.1860704,13.375924 19.1860704,13.2582323 L19.1860704,12.7502225 C19.1860704,12.6325308 19.0906494,12.5371441 18.9729578,12.5371441 Z" id="路径"></path>
            <path d="M18.9729578,15.4672375 L10.9400155,15.4672375 C10.8223239,15.4672375 10.7269371,15.5626243 10.7269371,15.6803159 L10.7269371,16.18836 C10.7269371,16.3061201 10.8223239,16.4015069 10.9400155,16.4015069 L18.9729578,16.4015069 C19.0906836,16.4015069 19.1860704,16.3061202 19.1860704,16.18836 L19.1860704,15.6803159 C19.1860704,15.5626243 19.0906494,15.4672375 18.9729578,15.4672375 Z" id="路径"></path>
            <path d="M14.9999829,0.000706674107 C6.72079614,0.000706674107 0.0092208817,6.71228193 0.0092208817,14.9914686 C0.0092208817,23.2706554 6.72079614,29.9822306 14.9999829,29.9822306 C23.2791696,29.9822306 29.9907448,23.2706211 29.9907448,14.9914686 C29.9907448,6.71231622 23.2791696,0.000706674107 14.9999829,0.000706674107 Z M12.5027617,7.42271454 C12.5027617,7.3050229 12.5981827,7.20963616 12.7158744,7.20963616 L17.1971332,7.20963616 C17.3148591,7.20963616 17.4102459,7.3050229 17.4102459,7.42271454 L17.4102459,7.93075865 C17.4102459,8.04845029 17.3148591,8.14383703 17.1971332,8.14383703 L12.7158744,8.14383706 C12.5981485,8.14383706 12.5027617,8.04845032 12.5027617,7.93075868 L12.5027617,7.42271454 Z M22.3557614,22.038782 C22.3557614,22.4311217 22.037737,22.749146 21.6454658,22.749146 L8.23293663,22.7491461 C7.84063118,22.7491461 7.52260681,22.4311217 7.52260681,22.038782 L7.52260681,7.93075865 C7.52260681,7.5384532 7.84066544,7.22042883 8.23293663,7.22042883 L10.7273483,7.22042883 C10.9487525,7.24283648 11.042152,7.49569363 11.042152,7.49569363 L11.867775,8.84906176 C11.867775,8.84906176 11.9062518,8.88133701 11.9211902,8.88973132 C11.9415422,8.90114073 11.9967048,8.9074793 11.9967048,8.9074793 L17.8525059,8.9074793 C17.8525059,8.9074793 17.9250054,8.90384749 17.9501883,8.88973132 C17.9794484,8.87331958 18.0379345,8.79276847 18.0379345,8.79276847 L18.8292608,7.49569359 C18.8292608,7.49569359 18.9226604,7.24283645 19.1440645,7.22042879 L21.6455685,7.22042879 C22.037874,7.22042879 22.3558641,7.53845317 22.3558641,7.93075862 L22.3558642,22.038782 L22.3557614,22.038782 Z" id="形状" fill-rule="nonzero"></path>
        </g>
    </g>
</svg>