<?xml version="1.0" encoding="UTF-8"?>
<svg width="20px" height="20px" viewBox="0 0 20 20" version="1.1" xmlns="http://www.w3.org/2000/svg" xmlns:xlink="http://www.w3.org/1999/xlink">
    <!-- Generator: Sketch 52 (66869) - http://www.bohemiancoding.com/sketch -->
    <title>building</title>
    <desc>Created with Sketch.</desc>
    <g id="building" stroke="none" stroke-width="1" fill="none" fill-rule="evenodd">
        <g fill="#FFFFFF" fill-rule="nonzero" id="Shape">
            <path d="M19.375,18.6394558 L18.125,18.6394558 L18.125,6.39455782 C18.125,4.48979592 17.125,3.67346939 16.5,3.53741497 L12.5,2.17687075 L12.5,0.680272109 C12.5,0.408163265 12.375,0.272108844 12.25,0.136054422 C12.125,0 11.875,0 11.75,0 L3.375,2.58503401 C3.375,2.58503401 1.875,2.99319728 1.875,5.17006803 L1.875,18.6394558 L0.625,18.6394558 C0.25,18.6394558 0,18.9115646 0,19.3197279 C0,19.7278912 0.25,20 0.625,20 L19.375,20 C19.75,20 20,19.7278912 20,19.3197279 C20,18.9115646 19.75,18.6394558 19.375,18.6394558 Z M11.25,18.6394558 L3.125,18.6394558 L3.125,5.17006803 C3.125,4.21768707 3.625,3.94557823 3.75,3.94557823 L11.25,1.63265306 L11.25,18.6394558 Z M16.875,18.6394558 L12.5,18.6394558 L12.5,3.53741497 L16.125,4.89795918 C16.125,4.89795918 16.25,4.89795918 16.25,4.89795918 C16.375,4.89795918 16.875,5.03401361 16.875,6.39455782 L16.875,18.6394558 Z M6.625,4.89795918 L5.375,4.89795918 L5.375,6.2585034 L6.625,6.2585034 L6.625,4.89795918 Z M9.5,4.89795918 L8.25,4.89795918 L8.25,6.2585034 L9.5,6.2585034 L9.5,4.89795918 Z M6.625,7.07482993 L5.375,7.07482993 L5.375,8.43537415 L6.625,8.43537415 L6.625,7.07482993 Z M9.5,7.07482993 L8.25,7.07482993 L8.25,8.43537415 L9.5,8.43537415 L9.5,7.07482993 Z M6.625,9.3877551 L5.375,9.3877551 L5.375,10.7482993 L6.625,10.7482993 L6.625,9.3877551 Z M9.5,9.3877551 L8.25,9.3877551 L8.25,10.7482993 L9.5,10.7482993 L9.5,9.3877551 Z M6.625,11.7006803 L5.375,11.7006803 L5.375,13.0612245 L6.625,13.0612245 L6.625,11.7006803 Z M9.5,11.7006803 L8.25,11.7006803 L8.25,13.0612245 L9.5,13.0612245 L9.5,11.7006803 Z M6.625,13.877551 L5.375,13.877551 L5.375,15.2380952 L6.625,15.2380952 L6.625,13.877551 Z M9.5,13.877551 L8.25,13.877551 L8.25,15.2380952 L9.5,15.2380952 L9.5,13.877551 Z M6.625,16.1904762 L5.375,16.1904762 L5.375,17.5510204 L6.625,17.5510204 L6.625,16.1904762 Z M9.5,16.1904762 L8.25,16.1904762 L8.25,17.5510204 L9.5,17.5510204 L9.5,16.1904762 Z M14.125,8.43537415 L15.375,8.43537415 L15.375,7.07482993 L14.125,7.07482993 L14.125,8.43537415 Z M14.125,10.7482993 L15.375,10.7482993 L15.375,9.3877551 L14.125,9.3877551 L14.125,10.7482993 Z M14.125,13.0612245 L15.375,13.0612245 L15.375,11.7006803 L14.125,11.7006803 L14.125,13.0612245 Z M14.125,15.2380952 L15.375,15.2380952 L15.375,13.877551 L14.125,13.877551 L14.125,15.2380952 Z M14.125,17.5510204 L15.375,17.5510204 L15.375,16.1904762 L14.125,16.1904762 L14.125,17.5510204 Z"></path>
        </g>
    </g>
</svg>