<?xml version="1.0" encoding="UTF-8"?>
<svg width="32px" height="38px" viewBox="0 0 32 38" version="1.1" xmlns="http://www.w3.org/2000/svg" xmlns:xlink="http://www.w3.org/1999/xlink">
    <!-- Generator: Sketch 52 (66869) - http://www.bohemiancoding.com/sketch -->
    <title>byhand</title>
    <desc>Created with Sketch.</desc>
    <g id="byhand" stroke="none" stroke-width="1" fill="none" fill-rule="evenodd">
        <g id="手套">
            <polyline id="路径" fill="#E597D4" points="21.85 30.4 21.85 37.05 2.85 37.05 2.85 30.4"></polyline>
            <path d="M21.5500146,38 L3.30110746,38 C2.52808263,38 1.9,37.3580445 1.9,36.5679455 L1.9,29.7815594 L4.70221491,29.7815594 L4.70221491,35.1358911 L20.1489071,35.1358911 L20.1489071,29.7815594 L22.9511221,29.7815594 L22.9511221,36.5679455 C22.9511221,37.3580445 22.3299414,38 21.5500146,38 Z M21.881311,18.4803218 L22.9373181,17.259901 C24.2970135,15.6867574 26.650598,15.5315594 28.1897456,16.9212871 C29.7288932,18.3110149 29.8807373,20.7165842 28.5210419,22.2897277 L23.3100265,28.3283416 C22.9304161,28.7727723 21.874409,29.4429455 21.874409,29.4429455 L3.30110746,29.4429455 L3.30110746,10.1066832 C3.30110746,5.04863864 7.31117365,0.950000041 12.2599128,0.95 L12.9225055,0.95 C17.8712447,0.95 21.8813109,5.0486386 21.881311,10.1066832 L21.881311,18.4803218 Z" id="形状" fill="#E597D4" fill-rule="nonzero"></path>
            <path d="M22.2295013,31.35 L3.32503064,31.35 C2.53880682,31.35 1.9,30.708189 1.9,29.9182677 L1.9,10.5863555 C1.9,4.74658044 6.62436271,0 12.436803,0 L13.1107091,0 C18.9231494,0 23.6475121,4.74658044 23.6475121,10.5863555 L23.6475121,15.6432621 C24.3073785,15.2835658 25.0374435,15.0719798 25.8096275,15.0226097 C27.1995589,14.9309224 28.5403513,15.3964117 29.5863098,16.3203375 C31.7414054,18.2316648 31.9520011,21.546513 30.0496202,23.7117435 L24.7496294,29.7489989 C24.2652594,30.3061755 23.2754598,30.9479865 22.9806258,31.1313611 C22.7559905,31.2724185 22.4962558,31.35 22.2295013,31.35 Z M4.75006127,28.4865355 L21.8012901,28.4865355 C22.1663226,28.2326322 22.5173154,27.9716761 22.6155933,27.8517773 L27.9155842,21.8145219 C28.7790264,20.8341732 28.6807484,19.3319123 27.7049885,18.4644094 C27.2346582,18.0482902 26.6239308,17.8367042 25.9921438,17.8790214 C25.3603568,17.9213386 24.7847287,18.2034533 24.3705572,18.6759955 L23.2965193,19.8961418 C22.9034074,20.3404725 22.2786403,20.5026884 21.7240717,20.2911024 C21.1695031,20.0795163 20.8044706,19.5505512 20.8044706,18.9510574 L20.8044706,10.5863555 C20.8044706,6.32642295 17.3577216,2.86346458 13.117729,2.86346458 L12.4438228,2.86346458 C8.20383014,2.86346458 4.75708114,6.32642295 4.75708114,10.5863555 L4.75708114,28.4865355 L4.75006127,28.4865355 Z" id="形状" fill="#E597D4" fill-rule="nonzero"></path>
            <path d="M20.4658487,30.3527728 L20.4658487,37.05 L1.9,37.05 L1.9,30.3527728 L20.4658487,30.3527728 Z M20.8027715,19.2000099 L21.8767128,17.9956229 C23.2595,16.4431472 25.6530556,16.2899882 27.2183426,17.6614577 C28.7836297,19.0329273 28.9380526,21.4068925 27.5552654,22.9593682 L22.2557509,28.9186473 C21.8696936,29.3572391 20.7957522,30.0186077 20.7957522,30.0186077 L1.9,30.0186077 L1.9,10.9363835 C1.9,5.94479107 5.97816939,1.90000004 11.0109534,1.9 L11.6847989,1.9 C16.7175828,1.9 20.7957522,5.94479103 20.7957522,10.9363835 L20.7957522,19.2000099 L20.8027715,19.2000099 Z" id="形状" fill="#FF4F80" fill-rule="nonzero"></path>
            <path d="M14.6682167,17.112315 C12.8831295,25.7147002 7.0692488,31.9949265 1.07192038,32.2999265 C0.345185278,32.3345856 -0.924837208,20.0999283 1.07192038,10.4508387 C3.06867797,0.801749169 11.0909867,-0.459841589 12.6644034,2.10493079 C14.9857223,5.88970298 15.8606267,11.3727704 14.6682167,17.112315 Z" id="路径" fill="#FC6396"></path>
            <path d="M29.4386788,19.6722273 C29.3544479,18.2929422 28.7297359,17.0320806 27.6838696,16.1195234 C26.6380033,15.2069661 25.3043483,14.7472044 23.9075203,14.8377635 C23.1354042,14.8865261 22.4054036,15.0955087 21.7455953,15.4507791 L21.7455953,10.4560953 C21.7455953,4.68817596 17.021649,-4.0816911e-08 11.209721,0 L10.5358743,0 C4.72394632,1.45010798e-16 0,4.69514206 0,10.4560953 L0,29.5501375 C0,29.6058662 0.00701925042,29.6615949 0.00701925042,29.7173236 C0,29.7730523 0,29.828781 0,29.8845096 L0,36.5858845 C0,37.3660862 0.638750555,38 1.42490504,38 L19.9907862,38 C20.7769407,38 21.4156912,37.3660861 21.4156912,36.5858845 L21.4156912,30.5393217 C21.8368454,30.2606783 22.4896344,29.8009166 22.8546348,29.3829514 L28.1541585,23.4199817 C29.0666592,22.3750687 29.5299289,21.0515124 29.4386788,19.6722273 Z M2.84981012,35.1648029 L2.84981012,30.9572869 L18.5658811,30.9572869 L18.5658811,35.1648029 L2.84981012,35.1648029 Z M26.0132913,21.5461045 L20.7137675,27.5090742 C20.6154982,27.6205316 20.2645364,27.8852429 19.8995361,28.136022 L2.84981012,28.136022 L2.84981012,10.4491292 C2.84981012,6.24161319 6.29625533,2.8212649 10.5358743,2.8212649 L11.209721,2.8212649 C15.44934,2.8212649 18.8957852,6.24161319 18.8957852,10.4491292 L18.8957852,18.7178735 C18.8957852,19.3030247 19.2607856,19.8324473 19.8153052,20.0414299 C20.369825,20.2504125 20.994537,20.0971586 21.3876143,19.651329 L22.4615575,18.4461961 C22.8756924,17.9794684 23.4512698,17.6938588 24.0830011,17.6590284 C24.7077132,17.6102658 25.3183868,17.8262145 25.7956949,18.2372136 C26.2659838,18.6482126 26.5537725,19.2263978 26.5888687,19.8463795 C26.6380033,20.4733272 26.4274262,21.0724106 26.0132913,21.5461045 Z" id="形状" fill="#642363" fill-rule="nonzero"></path>
            <path d="M5.23947005,12.6327809 C4.98075016,12.6327809 4.76398489,12.4132489 4.76398489,12.1351749 C4.76398489,7.95674899 7.68682027,5.87119489 7.81268396,5.78338213 C8.02944927,5.62970972 8.32313129,5.69556932 8.46997231,5.92241904 C8.61681332,6.1492688 8.55388146,6.45661361 8.34410858,6.61028602 C8.23922215,6.68346337 5.71495522,8.50557906 5.71495522,12.1424927 C5.71495522,12.4132489 5.50518235,12.6327809 5.23947005,12.6327809 Z M5.22548521,14.25 C5.1555609,14.25 5.09962148,14.2280468 5.04368202,14.2134113 C4.9877426,14.1841404 4.93180314,14.1475517 4.88285617,14.1036453 C4.79894702,14.0158325 4.75,13.8841133 4.75,13.7450764 C4.75,13.6865345 4.75699244,13.6133572 4.78496217,13.5548153 C4.80593946,13.4962735 4.84090159,13.4450493 4.87586372,13.3938252 C4.92481074,13.342601 4.98075016,13.3133301 5.03668962,13.2840592 C5.20450792,13.2181995 5.41428079,13.2547882 5.54713692,13.3938252 C5.59608394,13.4450493 5.63104607,13.4889557 5.65202336,13.5548153 C5.67999309,13.6133572 5.68698549,13.6865345 5.68698553,13.7450764 C5.68698553,13.8841133 5.63803851,14.0158325 5.54713692,14.1036453 C5.47022021,14.1914581 5.34435649,14.25 5.22548521,14.25 Z" id="形状" fill="#FFE9F1" fill-rule="nonzero" opacity="0.87"></path>
        </g>
    </g>
</svg>