<?xml version="1.0" encoding="UTF-8"?>
<svg width="20px" height="20px" viewBox="0 0 20 20" version="1.1" xmlns="http://www.w3.org/2000/svg" xmlns:xlink="http://www.w3.org/1999/xlink">
    <!-- Generator: Sketch 52 (66869) - http://www.bohemiancoding.com/sketch -->
    <title>calendar</title>
    <desc>Created with Sketch.</desc>
    <g id="calendar" stroke="none" stroke-width="1" fill="none" fill-rule="evenodd">
        <path d="M17.7163121,9.09219857 L15.9007092,9.09219857 L15.9007092,10.9078014 L17.7163121,10.9078014 L17.7163121,9.09219857 Z M12.2695036,12.2695036 L10.4539007,12.2695036 L10.4539007,14.0851064 L12.2695036,14.0851064 L12.2695036,12.2695036 Z M12.2695036,15.4468085 L10.4539007,15.4468085 L10.4539007,17.2624113 L12.2695036,17.2624113 L12.2695036,15.4468085 Z M14.9929078,12.2695036 L13.177305,12.2695036 L13.177305,14.0851064 L14.9929078,14.0851064 L14.9929078,12.2695036 Z M12.2695036,9.09219857 L10.4539007,9.09219857 L10.4539007,10.9078014 L12.2695036,10.9078014 L12.2695036,9.09219857 Z M17.7163121,12.2695036 L15.9007092,12.2695036 L15.9007092,14.0851064 L17.7163121,14.0851064 L17.7163121,12.2695036 Z M14.9929078,9.09219857 L13.177305,9.09219857 L13.177305,10.9078014 L14.9929078,10.9078014 L14.9929078,9.09219857 Z M9.5460993,9.09219857 L7.73049647,9.09219857 L7.73049647,10.9078014 L9.5460993,10.9078014 L9.5460993,9.09219857 Z M4.09929079,12.2695036 L2.28368794,12.2695036 L2.28368794,14.0851064 L4.09929079,14.0851064 L4.09929079,12.2695036 Z M6.82269504,15.4468085 L5.00709221,15.4468085 L5.00709221,17.2624113 L6.82269504,17.2624113 L6.82269504,15.4468085 Z M4.09929079,9.09219857 L2.28368794,9.09219857 L2.28368794,10.9078014 L4.09929079,10.9078014 L4.09929079,9.09219857 Z M4.09929079,15.4468085 L2.28368794,15.4468085 L2.28368794,17.2624113 L4.09929079,17.2624113 L4.09929079,15.4468085 Z M9.5460993,12.2695036 L7.73049647,12.2695036 L7.73049647,14.0851064 L9.5460993,14.0851064 L9.5460993,12.2695036 Z M18.1702128,1.82978723 L16.3546099,1.82978723 L16.3546099,0.468085106 C16.3546099,0.195744681 16.1730497,0.0141844043 15.9007092,0.0141844043 C15.6283688,0.0141844043 15.4468085,0.195744681 15.4468085,0.468085106 L15.4468085,1.82978723 L4.55319149,1.82978723 L4.55319149,0.468085106 C4.55319149,0.195744681 4.37163121,0.0141844043 4.09929079,0.0141844043 C3.82695036,0.0141844043 3.64539009,0.195744681 3.64539009,0.468085106 L3.64539009,1.82978723 L1.82978723,1.82978723 C0.831205681,1.82978723 0.0141844043,2.64680851 0.0141844043,3.64539006 L0.0141844043,6.36879432 L0.0141844043,7.27659574 L0.0141844043,18.1702128 C0.0141844043,19.1687943 0.831205681,19.9858156 1.82978723,19.9858156 L18.1702128,19.9858156 C19.1687943,19.9858156 19.9858156,19.1687943 19.9858156,18.1702128 L19.9858156,7.27659574 L19.9858156,6.36879432 L19.9858156,3.64539006 C19.9858156,2.64680851 19.1687943,1.82978723 18.1702128,1.82978723 Z M19.0780142,18.1702128 C19.0780142,18.6695036 18.6695036,19.0780142 18.1702128,19.0780142 L1.82978723,19.0780142 C1.33049645,19.0780142 0.921985809,18.6695036 0.921985809,18.1702128 L0.921985809,7.27659574 L19.0780142,7.27659574 L19.0780142,18.1702128 Z M19.0780142,6.36879432 L0.921985809,6.36879432 L0.921985809,3.64539006 C0.921985809,3.14609928 1.33049645,2.73758864 1.82978723,2.73758864 L3.64539006,2.73758864 L3.64539006,4.09929077 C3.64539006,4.37163119 3.82695034,4.55319147 4.09929077,4.55319147 C4.37163119,4.55319147 4.55319147,4.37163119 4.55319147,4.09929077 L4.55319149,2.73758866 L15.4468085,2.73758866 L15.4468085,4.09929079 C15.4468085,4.37163121 15.6283688,4.55319149 15.9007092,4.55319149 C16.1730496,4.55319149 16.3546099,4.37163121 16.3546099,4.09929079 L16.3546099,2.73758866 L18.1702128,2.73758866 C18.6695036,2.73758866 19.0780142,3.1460993 19.0780142,3.64539009 L19.0780142,6.36879432 Z M6.82269504,12.2695036 L5.00709221,12.2695036 L5.00709221,14.0851064 L6.82269504,14.0851064 L6.82269504,12.2695036 Z M9.5460993,15.4468085 L7.73049647,15.4468085 L7.73049647,17.2624113 L9.5460993,17.2624113 L9.5460993,15.4468085 Z M6.82269504,9.09219857 L5.00709221,9.09219857 L5.00709221,10.9078014 L6.82269504,10.9078014 L6.82269504,9.09219857 Z" fill="#00B2FF" fill-rule="nonzero"></path>
    </g>
</svg>