<?xml version="1.0" encoding="UTF-8"?>
<svg width="50px" height="41px" viewBox="0 0 50 41" version="1.1" xmlns="http://www.w3.org/2000/svg" xmlns:xlink="http://www.w3.org/1999/xlink">
    <!-- Generator: Sketch 52 (66869) - http://www.bohemiancoding.com/sketch -->
    <title>camera@3x</title>
    <desc>Created with Sketch.</desc>
    <g id="camera" stroke="none" stroke-width="1" fill="none" fill-rule="evenodd">
        <g transform="translate(0.000000, -0.000000)" fill="#FFFFFF">
            <path d="M25,16.3934426 C21.6123586,16.3934426 18.852459,19.3315631 18.852459,22.9508197 C18.852459,26.5643039 21.606947,29.5081967 25,29.5081967 C28.3876414,29.5081967 31.147541,26.5700762 31.147541,22.9508197 C31.1421294,19.3373355 28.3876414,16.3934426 25,16.3934426 Z" id="路径"></path>
            <path d="M44.0962507,7.92590807 C41.9585898,7.92590807 40.0839396,6.40147862 39.6362619,4.30327869 C39.1046447,1.81131469 36.8774482,0 34.3424734,0 L15.6575266,0 C13.1225518,0 10.8953553,1.81131469 10.3637381,4.30327869 C9.91606044,6.40147862 8.04141018,7.92590807 5.9037493,7.92590807 C2.64689424,7.92590807 0,10.5866281 0,13.860495 L0,34.2293475 C0,37.5032144 2.64689424,40.1639344 5.9037493,40.1639344 L44.0962507,40.1639344 C47.3531058,40.1639344 50,37.5032144 50,34.2293475 L50,13.860495 C50,10.5866281 47.3531058,7.92590807 44.0962507,7.92590807 Z M25.002798,33.2955641 C19.238948,33.2955641 14.5551203,28.5816458 14.5551203,22.793314 C14.5551203,17.0049823 19.2445439,12.291064 25.002798,12.291064 C30.761052,12.291064 35.4504757,17.0049823 35.4504757,22.793314 C35.4504757,28.5816458 30.761052,33.2955641 25.002798,33.2955641 Z" id="形状" fill-rule="nonzero"></path>
        </g>
    </g>
</svg>