<?xml version="1.0" encoding="UTF-8"?>
<svg width="22px" height="22px" viewBox="0 0 22 22" version="1.1" xmlns="http://www.w3.org/2000/svg" xmlns:xlink="http://www.w3.org/1999/xlink">
    <!-- Generator: Sketch 52 (66869) - http://www.bohemiancoding.com/sketch -->
    <title>delete_red@3x</title>
    <desc>Created with Sketch.</desc>
    <g id="delete_red" stroke="none" stroke-width="1" fill="none" fill-rule="evenodd">
        <circle id="椭圆形" fill="#DF0000" fill-rule="nonzero" cx="11" cy="11" r="11"></circle>
        <path d="M12.4784247,9.51174972 L12.5606052,9.51174972 L12.5606052,14.4263342 C12.5606052,14.6680351 12.3140638,14.829169 12.0675223,14.829169 C11.7388003,14.829169 11.5744393,14.6680351 11.5744393,14.4263342 L11.5744393,9.51174972 C11.5744393,9.27004884 11.7388003,9.10891492 11.9853418,9.10891492 C12.3140638,9.10891492 12.4784247,9.27004884 12.4784247,9.51174972 Z M5.41090246,6.69190615 L16.0121859,6.69190615 C16.2587274,6.69190615 16.4230883,6.85304006 16.4230883,7.09474094 C16.4230883,7.33644182 16.2587274,7.49757574 16.0121859,7.49757574 L5.41090246,7.49757574 C5.16436098,7.49757574 5,7.33644182 5,7.09474094 C5,6.85304006 5.16436098,6.69190615 5.41090246,6.69190615 Z M12.7249662,5.96680351 L8.78030262,5.96680351 C8.53376114,5.96680351 8.28721967,5.72510263 8.28721967,5.48340176 C8.28721967,5.24170088 8.53376114,5.08056696 8.78030262,5 L12.7249662,5 C12.9715077,5 13.2180492,5.24170088 13.2180492,5.48340176 C13.2180492,5.80566959 12.9715077,5.96680351 12.7249662,5.96680351 Z M10.01301,14.3457673 C10.01301,14.5874682 9.84864901,14.7486021 9.60210753,14.829169 C9.27338557,14.829169 9.10902458,14.6680351 9.10902458,14.4263342 L9.10902458,9.51174972 C9.10902458,9.27004884 9.27338557,9.10891492 9.51992704,9.10891492 C9.84864901,9.10891492 10.01301,9.27004884 10.01301,9.51174972 L10.01301,14.3457673 Z M13.4889366,17.7513544 L8.11843371,17.7513544 C7.14197864,17.7513544 6.32826609,16.9278295 6.32826609,15.857247 L6.32826609,9.92786718 C6.32826609,9.68080969 6.4910086,9.51610469 6.73512236,9.51610469 C6.97923613,9.51610469 7.14197864,9.68080969 7.14197864,9.92786718 L7.14197864,15.857247 C7.14197864,16.4337145 7.54883492,16.9278295 8.11843371,16.9278295 L13.5703078,16.9278295 C14.0585354,16.9278295 14.5467629,16.4337145 14.5467629,15.857247 L14.5467629,9.92786718 C14.5467629,9.68080969 14.7095054,9.51610469 14.9536192,9.51610469 C15.197733,9.51610469 15.3604755,9.68080969 15.3604755,9.92786718 L15.3604755,15.857247 C15.2791042,16.9278295 14.4653917,17.7513544 13.4889366,17.7513544 Z" id="形状" fill="#FFFFFF" fill-rule="nonzero"></path>
    </g>
</svg>