<?xml version="1.0" encoding="UTF-8"?>
<svg width="50px" height="50px" viewBox="0 0 50 50" version="1.1" xmlns="http://www.w3.org/2000/svg" xmlns:xlink="http://www.w3.org/1999/xlink">
    <!-- Generator: Sketch 52 (66869) - http://www.bohemiancoding.com/sketch -->
    <title>delete</title>
    <desc>Created with Sketch.</desc>
    <g id="delete" stroke="none" stroke-width="1" fill="none" fill-rule="evenodd">
        <path d="M31.3240408,17.6912568 C31.3240408,16.7435109 30.6795564,16.1116803 29.3905875,16.1116803 C28.4238609,16.1116803 27.7793765,16.7435109 27.7793765,17.6912568 L27.7793765,36.9620902 C27.7793765,37.9098361 28.4238609,38.5416667 29.7128297,38.5416667 C30.6795564,38.5416667 31.646283,37.9098361 31.646283,36.9620902 L31.646283,17.6912568 L31.3240408,17.6912568 Z M3.61121103,6.63422131 C2.64448441,6.63422131 2,7.26605191 2,8.21379781 C2,9.16154372 2.64448441,9.79337432 3.61121103,9.79337432 L45.1804556,9.79337432 C46.1471823,9.79337432 46.7916667,9.16154372 46.7916667,8.21379781 C46.7916667,7.26605191 46.1471823,6.63422131 45.1804556,6.63422131 L3.61121103,6.63422131 Z M32.2907674,3.79098361 C33.257494,3.79098361 34.2242206,3.15915301 34.2242206,1.8954918 C34.2242206,0.947745902 33.257494,0 32.2907674,0 L16.8231415,0 C15.8564149,0.315915301 14.8896882,0.947745902 14.8896882,1.8954918 C14.8896882,2.8432377 15.8564149,3.79098361 16.8231415,3.79098361 L32.2907674,3.79098361 Z M21.6567746,36.6461749 L21.6567746,17.6912568 C21.6567746,16.7435109 21.0122902,16.1116803 19.7233213,16.1116803 C18.7565947,16.1116803 18.1121103,16.7435109 18.1121103,17.6912568 L18.1121103,36.9620902 C18.1121103,37.9098361 18.7565947,38.5416667 20.0455635,38.5416667 C21.0122902,38.2257514 21.6567746,37.5939208 21.6567746,36.6461749 Z" id="Shape" fill="#FFFFFF" fill-rule="nonzero"></path>
        <path d="M35.2864114,50 L14.2278529,50 C10.399024,50 7.20833333,46.7708333 7.20833333,42.5729167 L7.20833333,19.3229167 C7.20833333,18.3541667 7.84647147,17.7083333 8.80367868,17.7083333 C9.76088589,17.7083333 10.399024,18.3541667 10.399024,19.3229167 L10.399024,42.5729167 C10.399024,44.8333333 11.9943694,46.7708333 14.2278529,46.7708333 L35.6054805,46.7708333 C37.5198949,46.7708333 39.4343093,44.8333333 39.4343093,42.5729167 L39.4343093,19.3229167 C39.4343093,18.3541667 40.0724474,17.7083333 41.0296547,17.7083333 C41.9868619,17.7083333 42.625,18.3541667 42.625,19.3229167 L42.625,42.5729167 C42.3059309,46.7708333 39.1152402,50 35.2864114,50 Z" id="Shape" fill="#FFFFFF" fill-rule="nonzero"></path>
    </g>
</svg>