<?xml version="1.0" encoding="UTF-8"?>
<svg width="50px" height="50px" viewBox="0 0 50 50" version="1.1" xmlns="http://www.w3.org/2000/svg" xmlns:xlink="http://www.w3.org/1999/xlink">
    <!-- Generator: Sketch 52 (66869) - http://www.bohemiancoding.com/sketch -->
    <title>delete_blue</title>
    <desc>Created with Sketch.</desc>
    <g id="delete_blue" stroke="none" stroke-width="1" fill="none" fill-rule="evenodd">
        <rect id="Rectangle-9" fill="#00589F" x="0" y="0" width="50" height="50" rx="6"></rect>
        <g id="edit" transform="translate(14.000000, 13.000000)" fill="#FFFFFF" fill-rule="nonzero">
            <g id="删除">
                <path d="M14.6620204,8.84562842 C14.6620204,8.37175546 14.3397782,8.05584016 13.6952938,8.05584016 C13.2119305,8.05584016 12.8896882,8.37175546 12.8896882,8.84562842 L12.8896882,18.4810451 C12.8896882,18.954918 13.2119305,19.2708333 13.8564149,19.2708333 C14.3397782,19.2708333 14.8231415,18.954918 14.8231415,18.4810451 L14.8231415,8.84562842 L14.6620204,8.84562842 Z M0.805605516,3.31711066 C0.322242206,3.31711066 0,3.63302596 0,4.10689891 C0,4.58077186 0.322242206,4.89668716 0.805605516,4.89668716 L21.5902278,4.89668716 C22.0735911,4.89668716 22.3958333,4.58077186 22.3958333,4.10689891 C22.3958333,3.63302596 22.0735911,3.31711066 21.5902278,3.31711066 L0.805605516,3.31711066 Z M15.1453837,1.8954918 C15.628747,1.8954918 16.1121103,1.5795765 16.1121103,0.947745902 C16.1121103,0.473872951 15.628747,0 15.1453837,0 L7.41157074,0 C6.92820743,0.15795765 6.44484412,0.473872951 6.44484412,0.947745902 C6.44484412,1.42161885 6.92820743,1.8954918 7.41157074,1.8954918 L15.1453837,1.8954918 Z M9.82838729,18.3230874 L9.82838729,8.84562842 C9.82838729,8.37175546 9.50614508,8.05584016 8.86166067,8.05584016 C8.37829736,8.05584016 8.05605516,8.37175546 8.05605516,8.84562842 L8.05605516,18.4810451 C8.05605516,18.954918 8.37829736,19.2708333 9.02278177,19.2708333 C9.50614508,19.1128757 9.82838729,18.7969604 9.82838729,18.3230874 Z" id="Shape"></path>
                <path d="M16.6432057,25 L6.11392643,25 C4.19951201,25 2.60416667,23.3854167 2.60416667,21.2864583 L2.60416667,9.66145833 C2.60416667,9.17708333 2.92323574,8.85416667 3.40183934,8.85416667 C3.88044294,8.85416667 4.19951201,9.17708333 4.19951201,9.66145833 L4.19951201,21.2864583 C4.19951201,22.4166667 4.99718468,23.3854167 6.11392643,23.3854167 L16.8027402,23.3854167 C17.7599474,23.3854167 18.7171547,22.4166667 18.7171547,21.2864583 L18.7171547,9.66145833 C18.7171547,9.17708333 19.0362237,8.85416667 19.5148273,8.85416667 C19.9934309,8.85416667 20.3125,9.17708333 20.3125,9.66145833 L20.3125,21.2864583 C20.1529655,23.3854167 18.5576201,25 16.6432057,25 Z" id="Shape"></path>
            </g>
        </g>
    </g>
</svg>