<?xml version="1.0" encoding="UTF-8"?>
<svg width="20px" height="20px" viewBox="0 0 20 20" version="1.1" xmlns="http://www.w3.org/2000/svg" xmlns:xlink="http://www.w3.org/1999/xlink">
    <!-- Generator: Sketch 52 (66869) - http://www.bohemiancoding.com/sketch -->
    <title>edit@3x</title>
    <desc>Created with Sketch.</desc>
    <g id="edit" stroke="none" stroke-width="1" fill="none" fill-rule="evenodd">
        <path d="M11.3335415,1.535 L14.868832,3.57 L6.03060587,13.6775 L6.02435978,13.6775 L5.87757651,13.73 L1.92379763,15.125 L2.40474703,11.865 L2.41723923,11.7775 L2.41723923,11.7525 C2.42660837,11.735 2.43597751,11.7125 2.44534666,11.6975 L11.3335415,1.535 Z M11.296065,4.26325641e-15 C10.7432854,4.26325641e-15 10.1998751,0.1975 9.88444722,0.5775 L0.883822611,10.87 C0.712054966,11.075 0.54028732,11.42 0.54028732,11.6925 L0,15.355 C0,16.16 0.843222986,16.725 1.7207995,16.725 C1.8894441,16.725 2.06121174,16.705 2.22673329,16.66 L6.63023111,15.1075 C6.9737664,15.04 7.31730169,14.8325 7.48594628,14.6275 L16.4865709,4.335 C17.0018738,3.7175 16.8301062,2.895 16.0587133,2.4125 L12.2798251,0.2375 C11.9893816,0.0775 11.6427233,0 11.296065,0 Z M0.0124921924,18.5 L20,18.5 L20,20 L0.0124921924,20 L0.0124921924,18.5 Z" fill="#FFFFFF" fill-rule="nonzero"></path>
    </g>
</svg>