<?xml version="1.0" encoding="UTF-8"?>
<svg width="20px" height="20px" viewBox="0 0 20 20" version="1.1" xmlns="http://www.w3.org/2000/svg" xmlns:xlink="http://www.w3.org/1999/xlink">
    <!-- Generator: Sketch 52 (66869) - http://www.bohemiancoding.com/sketch -->
    <title>edithistory</title>
    <desc>Created with Sketch.</desc>
    <g id="edithistory" stroke="none" stroke-width="1" fill="none" fill-rule="evenodd">
        <g id="阅读记录" fill="#FFFFFF">
            <path d="M10,20 C4.48541667,20 0,15.5145833 0,10 C0,4.48541667 4.48541667,0 10,0 C15.5145833,0 20,4.48541667 20,10 C20,15.5145833 15.5145833,20 10,20 Z M10,1.33333333 C5.22083333,1.33333333 1.33333333,5.22083333 1.33333333,10 C1.33333333,14.7791667 5.22083333,18.6666667 10,18.6666667 C14.7791667,18.6666667 18.6666667,14.7791667 18.6666667,10 C18.6666667,5.22083333 14.7791667,1.33333333 10,1.33333333 Z" id="形状" fill-rule="nonzero"></path>
            <path d="M13.0774239,13.8461538 C12.8802829,13.8461538 12.6831418,13.7822802 12.534084,13.6524725 L9.4567602,11.0151099 C9.31251064,10.8914835 9.23076923,10.7245879 9.23076923,10.5494505 L9.23076923,5.27472527 C9.23076923,4.91002747 9.574564,4.61538462 10.0001002,4.61538462 C10.4256364,4.61538462 10.7694311,4.91002747 10.7694311,5.27472527 L10.7694311,10.2774725 L13.6207639,12.7211538 C13.9212838,12.9787088 13.9212838,13.396978 13.6207639,13.654533 C13.4717061,13.7822802 13.274565,13.8461538 13.0774239,13.8461538 Z" id="路径"></path>
        </g>
    </g>
</svg>