<?xml version="1.0" encoding="UTF-8"?>
<svg width="50px" height="50px" viewBox="0 0 50 50" version="1.1" xmlns="http://www.w3.org/2000/svg" xmlns:xlink="http://www.w3.org/1999/xlink">
    <!-- Generator: Sketch 52 (66869) - http://www.bohemiancoding.com/sketch -->
    <title>edit_white</title>
    <desc>Created with Sketch.</desc>
    <g id="edit_white" stroke="none" stroke-width="1" fill="none" fill-rule="evenodd">
        <path d="M25,0 C38.8071187,-2.53632657e-15 50,11.1928813 50,25 C50,38.8071187 38.8071187,50 25,50 C11.1928813,50 1.69088438e-15,38.8071187 0,25 C-1.69088438e-15,11.1928813 11.1928813,2.53632657e-15 25,0 Z M27.1669269,14.91875 L31.58604,17.4625 L20.5382573,30.096875 L20.5304497,30.096875 L20.3469706,30.1625 L15.404747,31.90625 L16.0059338,27.83125 L16.021549,27.721875 L16.021549,27.690625 C16.0332605,27.66875 16.0449719,27.640625 16.0566833,27.621875 L27.1669269,14.91875 Z M27.1200812,13 C26.4291068,13 25.7498438,13.246875 25.355559,13.721875 L14.1047783,26.5875 C13.8900687,26.84375 13.6753592,27.275 13.6753592,27.615625 L13,32.19375 C13,33.2 14.0540287,33.90625 15.1509994,33.90625 C15.3618051,33.90625 15.5765147,33.88125 15.7834166,33.825 L21.2877889,31.884375 C21.717208,31.8 22.1466271,31.540625 22.3574329,31.284375 L33.6082136,18.41875 C34.2523423,17.646875 34.0376327,16.61875 33.0733916,16.015625 L28.3497814,13.296875 C27.986727,13.096875 27.5534041,13 27.1200812,13 Z M13.0156152,36.125 L13.0156152,38 L38,38 L38,36.125 L13.0156152,36.125 Z" id="合并形状" fill="#FFFFFF"></path>
        <g id="edit" transform="translate(13.000000, 13.000000)"></g>
    </g>
</svg>