<?xml version="1.0" encoding="UTF-8"?>
<svg width="50px" height="50px" viewBox="0 0 50 50" version="1.1" xmlns="http://www.w3.org/2000/svg" xmlns:xlink="http://www.w3.org/1999/xlink">
    <!-- Generator: Sketch 52 (66869) - http://www.bohemiancoding.com/sketch -->
    <title>edit_blue</title>
    <desc>Created with Sketch.</desc>
    <g id="edit_blue" stroke="none" stroke-width="1" fill="none" fill-rule="evenodd">
        <rect id="Rectangle-9" fill="#00589F" x="0" y="0" width="50" height="50" rx="6"></rect>
        <g id="edit" transform="translate(13.000000, 13.000000)" fill="#FFFFFF" fill-rule="nonzero">
            <path d="M14.1669269,1.91875 L18.58604,4.4625 L7.53825734,17.096875 L7.53044972,17.096875 L7.34697064,17.1625 L2.40474703,18.90625 L3.00593379,14.83125 L3.02154903,14.721875 L3.02154903,14.690625 C3.03326046,14.66875 3.04497189,14.640625 3.05668332,14.621875 L14.1669269,1.91875 Z M14.1200812,5.32907052e-15 C13.4291068,5.32907052e-15 12.7498438,0.246875 12.355559,0.721875 L1.10477826,13.5875 C0.890068707,13.84375 0.675359151,14.275 0.675359151,14.615625 L0,19.19375 C0,20.2 1.05402873,20.90625 2.15099938,20.90625 C2.36180512,20.90625 2.57651468,20.88125 2.78341661,20.825 L8.28778888,18.884375 C8.717208,18.8 9.14662711,18.540625 9.35743285,18.284375 L20.6082136,5.41875 C21.2523423,4.646875 21.0376327,3.61875 20.0733916,3.015625 L15.3497814,0.296875 C14.986727,0.096875 14.5534041,0 14.1200812,0 Z M0.0156152405,23.125 L25,23.125 L25,25 L0.0156152405,25 L0.0156152405,23.125 Z"></path>
        </g>
    </g>
</svg>