<?xml version="1.0" encoding="UTF-8"?>
<svg width="20px" height="20px" viewBox="0 0 20 20" version="1.1" xmlns="http://www.w3.org/2000/svg" xmlns:xlink="http://www.w3.org/1999/xlink">
    <!-- Generator: Sketch 52 (66869) - http://www.bohemiancoding.com/sketch -->
    <title>fault_fixed</title>
    <desc>Created with Sketch.</desc>
    <g id="fault_fixed" stroke="none" stroke-width="1" fill="none" fill-rule="evenodd">
        <path d="M8.16136979,2.00065036 C8.16136979,0.895564364 8.98663328,-3.55271368e-15 9.99991923,-3.55271368e-15 C11.0177281,-3.55271368e-15 11.8386302,0.895564364 11.8386302,2.00065036 L11.8386302,12.3125599 C11.8386302,13.4150093 11.0177281,14.3132102 9.99991923,14.3132102 C8.98663328,14.3132102 8.16136979,13.415185 8.16136979,12.3125599 L8.16136979,2.00065036 Z M10.0000808,20 C8.89601421,20 8,19.0248104 8,17.8211156 C8,16.6195302 8.89601421,15.6492622 10.0000808,15.6492622 C11.1041473,15.6492622 12,16.6197059 12,17.8211156 C12,19.0223496 11.1041473,20 10.0000808,20 Z" id="合并形状" fill="#FFFFFF"></path>
    </g>
</svg>