<?xml version="1.0" encoding="UTF-8"?>
<svg width="20px" height="20px" viewBox="0 0 20 20" version="1.1" xmlns="http://www.w3.org/2000/svg" xmlns:xlink="http://www.w3.org/1999/xlink">
    <!-- Generator: Sketch 52 (66869) - http://www.bohemiancoding.com/sketch -->
    <title>fillin@3x</title>
    <desc>Created with Sketch.</desc>
    <g id="fillin" stroke="none" stroke-width="1" fill="none" fill-rule="evenodd">
        <path d="M19.9319142,10.6650786 C19.9635522,10.8181521 19.9795121,10.9786187 19.9795356,11.1415967 C19.9795356,11.3599411 19.9397299,11.5770416 19.8625125,11.7830407 C19.7837695,11.9963625 19.6622167,12.1957664 19.5015858,12.3759246 L19.4875506,12.3916262 L19.472553,12.4068115 C19.3859006,12.4961161 19.3077444,12.574108 19.2370283,12.6442139 C19.1784229,12.7017396 19.1272341,12.7527876 19.0839314,12.7975455 C19.0122295,12.8708433 18.9440482,12.9360204 18.8821805,12.9917859 L18.8740597,12.9990617 L18.8764537,13.0014088 L18.1702551,13.7295287 L15.985379,15.9830555 L15.1708179,16.8325639 L15.1649268,16.8390182 L15.1588245,16.8450736 C14.8642719,17.1419497 14.6361638,17.3755029 14.438708,17.5835908 C14.2206686,17.8111122 14.0398767,17.9994146 13.8929056,18.1518544 C13.7303501,18.3182825 13.6476406,18.4008745 13.5791777,18.4591044 C13.4983928,18.5336931 13.4088536,18.6092206 13.3113813,18.6855226 C13.1656071,18.8020997 13.0092713,18.8992669 12.8467158,18.9748179 C12.7228864,19.0363805 12.5622789,19.1052659 12.3511633,19.1865202 C12.1563596,19.2601936 11.9513698,19.3331159 11.737649,19.4047238 C11.5097522,19.4800166 11.3059593,19.5418375 11.1143945,19.5935191 C10.8891498,19.6539787 10.7341518,19.6897005 10.6122469,19.7091105 L10.5917573,19.7125841 L10.5712677,19.7149311 C10.4946841,19.7235682 10.4200954,19.7279102 10.3490272,19.7279102 C9.77719622,19.7279102 9.45856307,19.4352587 9.31267154,19.2517677 C9.06919037,18.9389552 8.98181034,18.5379647 9.05123557,18.0736043 C9.07111495,17.9284403 9.10923076,17.7552059 9.17637936,17.5074296 C9.22876514,17.3177659 9.28389693,17.1225398 9.34215028,16.9205072 C9.40340784,16.7079599 9.46276429,16.5127338 9.52017271,16.3363073 C9.58727438,16.1288296 9.642547,15.9842994 9.69960335,15.8690601 C9.75895979,15.7313362 9.82718803,15.6020147 9.90006339,15.4873622 C9.98864041,15.3461881 10.1033868,15.2037467 10.2451945,15.0578317 L10.279602,15.021617 L10.5246088,14.7644527 C10.6768608,14.6024605 10.867698,14.4046291 11.0955948,14.1700901 L11.8383368,13.4035258 L12.6629667,12.5529612 L14.851199,10.2961486 L14.901402,10.2439506 L14.8765939,10.2185087 L15.5016321,9.62524931 L15.5607304,9.56406218 L15.5634999,9.56678475 L15.6445194,9.48949697 C15.7230511,9.41518993 15.8165569,9.32602615 15.9269379,9.21822695 C16.0495703,9.09965486 16.1598808,8.99826305 16.2554051,8.91714961 L16.2668117,8.90740943 L16.2785233,8.89799782 C16.4727168,8.74245995 16.6819313,8.62921564 16.8992665,8.56230174 C17.0846117,8.50482294 17.2729376,8.47588401 17.4593389,8.47588401 C17.4798285,8.47588401 17.5003416,8.47625954 17.5310173,8.47736264 C17.7119031,8.48541296 17.8877662,8.51493862 18.0643569,8.56849791 C18.2145436,8.61532122 18.3448508,8.66824679 18.4745713,8.73577092 C18.7222302,8.86917626 18.965594,9.07045778 19.2187684,9.3520078 C19.4608179,9.62055525 19.6540725,9.91294858 19.7938148,10.2210905 L19.7977813,10.2290939 L19.8013723,10.2375197 C19.8590389,10.3705495 19.903609,10.5181779 19.9319142,10.6650786 Z M15.2737352,15.2572591 L17.4625308,12.9997189 L15.5587823,11.0260053 L13.3705734,13.2829822 L12.5461547,14.1336407 L11.8034128,14.8999703 C11.5791539,15.1306836 11.3924709,15.324173 11.2435986,15.4826916 C11.0943743,15.6400836 10.9991786,15.7392692 10.958176,15.7821495 C10.8633559,15.8799503 10.7900111,15.9690906 10.7396438,16.049453 C10.688455,16.1296746 10.642547,16.2190965 10.6020373,16.31678 C10.567841,16.379704 10.5238811,16.4952953 10.4694299,16.6633428 C10.4150022,16.8307332 10.3592837,17.0144824 10.3016171,17.2147781 C10.2439505,17.4140881 10.1901096,17.6052305 10.1386861,17.7910685 C10.0882014,17.9772821 10.0557419,18.1190898 10.0422935,18.2172661 C10.0153495,18.3986214 10.0322482,18.5273326 10.0931537,18.6056061 C10.1410801,18.6659483 10.2264182,18.6957557 10.3488394,18.6957557 C10.3827306,18.6957557 10.419532,18.6937607 10.4593377,18.6890666 C10.5480556,18.6748436 10.6818364,18.6429474 10.861666,18.5945751 C11.0415896,18.5461323 11.23184,18.4880198 11.4319245,18.4217631 C11.6319856,18.3546145 11.8235504,18.2863628 12.006971,18.2172661 C12.1900395,18.1466674 12.3286083,18.0874283 12.4240387,18.0391029 C12.5192108,17.9960583 12.6108155,17.9395652 12.698665,17.8693186 C12.7870073,17.8000811 12.8653043,17.7339417 12.9326641,17.6701259 C12.9597489,17.6505986 13.0445237,17.5658942 13.1875284,17.419275 C13.3299228,17.2717406 13.5098933,17.0846821 13.7267356,16.85817 C13.9440709,16.6293108 14.1884908,16.3795396 14.4591741,16.1066736 L15.2737352,15.2572591 Z M18.9277129,11.4144861 C18.9621204,11.3230927 18.9786669,11.2322156 18.9785965,11.1416436 C18.9785965,11.0501328 18.9700768,10.9630814 18.9528261,10.8791515 C18.9365377,10.7950339 18.9147103,10.7218534 18.8873674,10.6585539 C18.7918432,10.4482128 18.6586491,10.2469313 18.4853207,10.0544277 C18.3123444,9.86218229 18.1544361,9.72811979 18.0114314,9.65111365 C17.9437195,9.61586122 17.8642255,9.58445791 17.7724096,9.55577718 C17.6810631,9.52808218 17.5856562,9.51299076 17.4875972,9.50867222 C17.4780917,9.5082967 17.4686566,9.5082967 17.459292,9.5082967 C17.370316,9.5082967 17.2793684,9.5223789 17.1872944,9.55096576 C17.0858791,9.58236906 16.9870925,9.63738349 16.8923897,9.71331 C16.8177072,9.77684417 16.7242014,9.86218227 16.6122244,9.97070906 C16.5007639,10.0796583 16.4036436,10.172014 16.3221312,10.2492783 L18.2259032,12.212219 C18.2729143,12.170301 18.3241031,12.1208256 18.3781552,12.0654356 C18.4260112,12.0163592 18.4819879,11.9601008 18.5458742,11.897435 C18.6105114,11.8333845 18.6837389,11.7605561 18.7647819,11.6768609 C18.8398165,11.5928841 18.8938922,11.5058326 18.9277129,11.4144861 Z M6.90010979,18.6030009 C7.26861739,18.6030009 7.56746502,18.9111193 7.56746502,19.2911978 C7.56746502,19.6712763 7.26861739,19.979512 6.90010979,19.979512 L2.67228268,19.979512 C1.21003445,19.979512 0.0204879358,18.7523895 0.0204879358,17.2443038 L0.0204879358,2.75532069 C0.0204879358,1.24739922 1.21003445,0.0204879358 2.67228268,0.0204879358 L16.7200706,0.0204879587 C18.1819668,0.0204879587 19.3716072,1.24739922 19.3716072,2.75532071 L19.3716071,6.4431895 C19.3716071,6.82329142 19.0727595,7.13138638 18.7042519,7.13138638 C18.3358617,7.13138638 18.0368967,6.82326796 18.0368967,6.4431895 L18.0368967,2.75517989 C18.0368967,2.00614791 17.4462659,1.39697562 16.7200471,1.39697562 L2.67228268,1.39697562 C1.94594651,1.39697562 1.35494025,2.00614791 1.35494025,2.75517989 L1.35494025,17.2442803 C1.35494025,17.9934531 1.94594651,18.6030009 2.67228268,18.6030009 L6.90010979,18.6030009 Z M14.9916689,4.51214498 C14.9916689,4.89236427 14.6927039,5.20045922 14.3243136,5.20045922 L4.81554589,5.20045922 C4.44703833,5.20045922 4.14819067,4.89236424 4.14819067,4.51214498 C4.14819067,4.13204305 4.4470383,3.8239481 4.81554589,3.8239481 L14.3243136,3.8239481 C14.6927039,3.8239481 14.9916689,4.13206651 14.9916689,4.51214498 Z M4.81556936,7.45546466 L11.3767928,7.45546466 C11.7453942,7.45546466 12.044148,7.76355963 12.044148,8.14352073 C12.044148,8.52374002 11.7453942,8.83183498 11.3767928,8.83183498 L4.81556936,8.83183498 C4.44706179,8.83183498 4.14821413,8.52371654 4.14821413,8.14352073 C4.14821413,7.76355961 4.44706177,7.45546466 4.81556936,7.45546466 Z M8.54099067,11.3375504 C8.90947479,11.3375504 9.20822856,11.6456688 9.20822858,12.0256065 C9.20822858,12.4058258 8.90947479,12.7139207 8.54099069,12.7139207 L4.81556936,12.7139207 C4.44706179,12.7139207 4.14821413,12.4058257 4.14821413,12.0256065 C4.14821413,11.6456453 4.44706177,11.3375504 4.81556936,11.3375504 L8.54099067,11.3375504 Z" fill="#FFFFFF" fill-rule="nonzero"></path>
    </g>
</svg>