<?xml version="1.0" encoding="UTF-8"?>
<svg width="20px" height="14px" viewBox="0 0 20 14" version="1.1" xmlns="http://www.w3.org/2000/svg" xmlns:xlink="http://www.w3.org/1999/xlink">
    <!-- Generator: Sketch 52 (66869) - http://www.bohemiancoding.com/sketch -->
    <title>finger</title>
    <desc>Created with Sketch.</desc>
    <g id="finger" stroke="none" stroke-width="1" fill="none" fill-rule="evenodd">
        <g fill="#132F46" fill-rule="nonzero" id="Shape">
            <path d="M17.5677802,3.59519656 L10.7173997,3.59519656 L11.1681413,3.11039877 C11.206075,3.069838 11.2373145,3.0254143 11.2640913,2.97905913 C11.5519411,2.42279713 11.8040887,1.27936969 10.9271507,0.518372372 C9.93864305,-0.33533528 8.1914613,-0.0900391902 7.31229195,0.92784301 L5.16792201,3.17413713 C4.78635359,3.38273538 3.5635495,4.17270467 2.90305679,4.8776895 L0.656042715,4.89893562 C0.287862653,4.91825027 -0.00221860722,5.18286101 1.27870942e-05,5.50348425 L1.27870942e-05,11.4272883 C1.27870942e-05,11.7537059 0.299019625,12.0221796 0.678356658,12.0299054 L3.30693916,12.0356998 L9.08848182,13.7064173 C9.15988644,13.7373207 9.802528,14 10.5433509,14 L10.5455823,14 C11.4180575,14 12.1008641,13.6368845 12.4824326,12.9570088 C12.5716883,12.7812454 12.6230104,12.6112765 12.6497871,12.4528963 C13.1563136,12.4393761 14.0042435,12.2327093 14.4081259,11.0699672 C14.5464723,10.6276616 14.5553979,10.2085337 14.437134,9.85121259 C14.9347349,9.61750529 15.2649813,9.20996611 15.3497743,8.67495023 C15.4055591,8.33308088 15.4345672,7.92554171 15.291758,7.54311158 L17.5164581,7.54311158 C18.7526506,7.54311158 20,6.95401467 20,5.63675535 C20,4.11476072 18.4335612,3.63768879 17.5677802,3.59519656 Z M17.4919128,6.33208285 L12.3240036,6.33208285 C11.9379724,6.33208285 11.6255771,6.60248799 11.6255771,6.93663148 C11.6255771,7.27077498 11.9379724,7.54118012 12.3240036,7.54118012 C13.497717,7.54118012 13.8168064,7.73239518 13.899368,7.81544819 C14.0042435,7.91781585 14.024326,8.14379728 13.9663098,8.50691275 C13.9439958,8.63825239 13.9082935,8.86230237 13.350445,8.86230237 C13.265652,8.86230237 13.2031729,8.8545765 13.192016,8.8545765 C12.8149103,8.80242694 12.4578872,9.01875105 12.3864826,9.34323722 C12.3195408,9.66965485 12.5672255,9.98255223 12.9443312,10.0443591 C13.0068102,10.0540164 13.0291242,10.0713996 13.0514381,10.1023031 C13.1183799,10.1969449 13.1607764,10.4229263 13.0625951,10.7377551 C12.8840835,11.2457305 12.6609441,11.2457305 12.5895395,11.2457305 C12.4578872,11.2399361 12.3284664,11.2071012 12.2146652,11.1530202 C11.9535921,11.0120232 11.6144202,11.0371323 11.3845866,11.2148271 C11.1525216,11.3944533 11.0833483,11.6841731 11.2127692,11.9294692 C11.2930994,12.0955752 11.290868,12.2848588 11.2105378,12.4509648 C11.0744228,12.6943295 10.8802914,12.7928342 10.5411195,12.7928342 C10.1171546,12.7928342 9.69988386,12.6228653 9.6061653,12.5900303 L3.62602854,10.8710263 C3.5635495,10.8536431 3.49660767,10.8420543 3.42966584,10.8401228 L1.39017144,10.8401228 L1.39017144,6.07133504 L3.29578219,6.05974625 C3.5233844,6.04815746 3.75321802,5.851148 3.87371331,5.68311052 C4.20842246,5.20990153 5.35535913,4.48946498 5.9980007,4.14759563 C6.06271113,4.11282925 6.12072738,4.06840555 6.16981806,4.01818745 L8.40567516,1.67532007 C8.8207145,1.19824815 9.5258351,1.01669041 9.93864305,1.37208002 C10.2800464,1.66759421 10.0881465,2.23930793 10.0122791,2.4247286 L8.71360757,3.81924653 C8.54402161,4.00080426 8.51055069,4.24996329 8.62658319,4.460493 C8.7426157,4.67102272 8.98806907,4.80429382 9.25806779,4.80236235 L17.5209209,4.80236235 C17.7016639,4.81201968 18.6031472,4.90473001 18.6031472,5.63482389 C18.6053786,6.23937252 17.9248033,6.33208285 17.4919128,6.33208285 Z"></path>
            <path d="M3.5,11 C3.775,11 4,10.7387247 4,10.4193883 L4,4.58061172 C4,4.26127527 3.775,4 3.5,4 C3.225,4 3,4.26127527 3,4.58061172 L3,10.4193883 C3,10.7387247 3.225,11 3.5,11 Z"></path>
        </g>
    </g>
</svg>