<?xml version="1.0" encoding="UTF-8"?>
<svg width="22px" height="22px" viewBox="0 0 22 22" version="1.1" xmlns="http://www.w3.org/2000/svg" xmlns:xlink="http://www.w3.org/1999/xlink">
    <!-- Generator: Sketch 52 (66869) - http://www.bohemiancoding.com/sketch -->
    <title>fix-white</title>
    <desc>Created with Sketch.</desc>
    <g id="fix-white" stroke="none" stroke-width="1" fill="none" fill-rule="evenodd">
        <path d="M12.4881149,13.1556947 L12.4881149,13.1555451 C12.4702048,13.1871119 12.4514879,13.2185292 12.4321257,13.2499465 L8.39832252,19.7278877 C7.64093564,20.9443344 5.96335758,21.3611368 4.65140343,20.6588861 L4.37194155,20.5092801 C3.05998741,19.8068797 2.61046038,18.2514258 3.36800862,17.0349791 L7.40181179,10.5568883 C7.42117404,10.5256206 7.44118171,10.4949514 7.46183478,10.4648806 L6.17940807,5.19919699 C6.18238846,4.58278347 6.53666675,4.01377675 7.1108939,3.70313665 L11.6811929,1.23433788 C12.2519766,0.924365858 12.9581318,0.921739556 13.5315791,1.227456 L13.5706263,1.24840085 L12.2005854,3.448956 C12.0844325,3.63543385 12.0852951,3.86539614 12.2028443,4.05112029 L13.3302116,5.83128248 C13.4451943,6.01302868 13.654791,6.12531312 13.8820359,6.126904 L16.1083725,6.14186461 C16.3406189,6.14341716 16.5558554,6.02914994 16.6719755,5.84265254 L18.0421778,3.64224699 L18.0810636,3.66319184 C18.6534057,3.97077993 19.0040888,4.53915732 18.999964,5.15251991 L18.9791496,10.0566057 C18.9761692,10.6730192 18.6218909,11.2420259 18.0476638,11.552666 L12.4881149,13.1556947 Z M12.8627352,10.2115975 C13.4800684,9.88111781 13.6920851,9.14954431 13.3358196,8.57775005 C12.9797155,8.00580618 12.1905422,7.81027109 11.573209,8.14060122 C10.9558758,8.47123055 10.7438591,9.20280406 11.1001246,9.77459832 C11.4562287,10.3463926 12.245402,10.5420773 12.8627352,10.2115975 Z" id="合并形状" fill="#FFFFFF"></path>
    </g>
</svg>