<?xml version="1.0" encoding="UTF-8"?>
<svg width="22px" height="22px" viewBox="0 0 22 22" version="1.1" xmlns="http://www.w3.org/2000/svg" xmlns:xlink="http://www.w3.org/1999/xlink">
    <!-- Generator: Sketch 52 (66869) - http://www.bohemiancoding.com/sketch -->
    <title>fix-icon</title>
    <desc>Created with Sketch.</desc>
    <g id="fix-icon" stroke="none" stroke-width="1" fill="none" fill-rule="evenodd">
        <path d="M11,22 C4.92486775,22 0,17.0751322 0,11 C0,4.92486775 4.92486775,0 11,0 C17.0751322,0 22,4.92486775 22,11 C22,17.0751322 17.0751322,22 11,22 Z M12.1753354,12.2934168 L15.2078166,11.3315996 C15.5210314,11.1452156 15.7142741,10.8038115 15.7158998,10.4339634 L15.7272531,7.49151194 C15.729503,7.12349439 15.5382213,6.78246796 15.2260347,6.5979151 L15.2048242,6.5853482 L14.4574412,7.90559152 C14.3941029,8.01748996 14.2767012,8.08605029 14.1500214,8.08511876 L12.9356559,8.0761424 C12.8117042,8.07518787 12.6973787,8.00781721 12.6346609,7.89876949 L12.0197333,6.83067217 C11.9556155,6.71923768 11.955145,6.58126031 12.0185011,6.4693736 L12.7657962,5.14904051 L12.7444977,5.1364736 C12.4317083,4.95304373 12.0465327,4.95461951 11.7351961,5.14060273 L9.24230576,6.62188199 C8.92909096,6.80826605 8.73584825,7.14967008 8.73422259,7.51951819 L9.43372806,10.6789283 C9.42246275,10.6969708 9.41154948,10.7153724 9.40098825,10.734133 L7.20073197,14.6209875 C6.78752385,15.3508555 7.0327204,16.2841278 7.74833175,16.705568 L7.90076551,16.7953317 C8.61637686,17.2166821 9.53141944,16.9666006 9.94453956,16.2367326 L12.1447958,12.3499679 C12.1553571,12.3311175 12.1655663,12.3122672 12.1753354,12.293327 L12.1753354,12.2934168 Z" id="Combined-Shape" fill="#65C0F4"></path>
        <path d="M12.3796737,10.5269585 C12.716401,10.3286707 12.8320464,9.88972659 12.6377198,9.54665003 C12.4434812,9.20348371 12.013023,9.08616266 11.6762958,9.28436073 C11.3395686,9.48273833 11.2239231,9.92168243 11.4182498,10.264759 C11.6124884,10.6078355 12.0429465,10.7252464 12.3796737,10.5269585 Z" id="Shape" fill="#65C0F4" fill-rule="nonzero"></path>
    </g>
</svg>