<?xml version="1.0" encoding="UTF-8"?>
<svg width="13px" height="18px" viewBox="0 0 13 18" version="1.1" xmlns="http://www.w3.org/2000/svg" xmlns:xlink="http://www.w3.org/1999/xlink">
    <!-- Generator: Sketch 52 (66869) - http://www.bohemiancoding.com/sketch -->
    <title>fix</title>
    <desc>Created with Sketch.</desc>
    <g id="fix" stroke="none" stroke-width="1" fill="none" fill-rule="evenodd">
        <path d="M7.70909334,10.9401252 L7.70909334,10.9399906 C7.69454139,10.9684008 7.67933396,10.9966763 7.66360212,11.0249518 L4.38613705,16.855099 C3.77076021,17.949901 2.40772803,18.3250231 1.34176529,17.6929975 L1.11470251,17.5583521 C0.048739769,16.9261918 -0.316500939,15.5262832 0.299007002,14.4314812 L3.57647208,8.60119944 C3.59220391,8.57305855 3.60846014,8.54545623 3.62524076,8.5183925 L2.58326906,3.77927729 C2.58569063,3.22450512 2.87354174,2.71239908 3.3401013,2.43282299 L7.05346922,0.210904094 C7.51723102,-0.0680707279 8.0909821,-0.0704344 8.556908,0.204710404 L8.58863387,0.223560764 L7.47547563,2.2040604 C7.38110139,2.37189046 7.38180231,2.57885653 7.47731101,2.74600826 L8.39329695,4.34815423 C8.48672041,4.51172581 8.65701768,4.6127818 8.84165417,4.6142136 L10.6505527,4.62767815 C10.8392529,4.62907544 11.0141325,4.52623495 11.1084801,4.35838729 L12.2217694,2.3780223 L12.2533642,2.39687266 C12.7183922,2.67370194 13.0033222,3.18524159 12.9999708,3.73726791 L12.983059,8.15094512 C12.9806375,8.70571729 12.6927864,9.21782333 12.2262268,9.49739943 L7.70909334,10.9401252 Z M7.53093829,8.0084349 C8.03252155,7.71100315 8.20478511,7.05258699 7.9153194,6.53797216 C7.62598478,6.02322268 6.98478151,5.8472411 6.48319826,6.14453821 C5.981615,6.44210461 5.80935144,7.10052077 6.09881715,7.6151356 C6.38815177,8.12975044 7.02935504,8.30586666 7.53093829,8.0084349 Z" fill="#FFFFFF"></path>
    </g>
</svg>