<?xml version="1.0" encoding="UTF-8"?>
<svg width="14px" height="14px" viewBox="0 0 14 14" version="1.1" xmlns="http://www.w3.org/2000/svg" xmlns:xlink="http://www.w3.org/1999/xlink">
    <!-- Generator: Sketch 52 (66869) - http://www.bohemiancoding.com/sketch -->
    <title>go_white</title>
    <desc>Created with Sketch.</desc>
    <g id="go_white" stroke="none" stroke-width="1" fill="none" fill-rule="evenodd">
        <path d="M7.00000802,0.0118488389 C3.13969871,0.0118488389 0.0118408367,3.14081243 0.0118408367,6.99998398 C0.0118408367,10.8591395 3.13971473,13.9881512 7.00000802,13.9881512 C10.8591635,13.9881512 13.9881432,10.8591716 13.9881432,6.99998398 C13.9881431,3.14081243 10.8591635,0.0118488389 7.00000802,0.0118488389 Z M10.3166396,7.30141289 C10.3063676,7.32418431 10.2939002,7.34237262 10.2870575,7.35261253 C10.2836442,7.35826933 10.2802149,7.36509596 10.2767856,7.37083288 C10.2574915,7.40834724 10.230169,7.45837707 10.185796,7.50502563 L10.1824147,7.50730117 C10.1801232,7.51069845 10.1778637,7.51295796 10.1755721,7.51526555 C10.1664539,7.52774898 10.15623,7.54024841 10.145958,7.55048835 L6.05815882,11.4904576 C5.91257233,11.6303392 5.71923156,11.7076755 5.51791037,11.7076755 C5.3040577,11.7076755 5.10507615,11.6235126 4.9571981,11.4699617 C4.65918249,11.1606004 4.66828465,10.6670166 4.97764591,10.3689529 L8.49672038,6.97730869 L4.9640087,3.63559814 C4.6523719,3.34102789 4.63868662,2.847412 4.93328891,2.53458935 C5.08001317,2.3799007 5.28703922,2.29118669 5.49970607,2.29118669 C5.69873569,2.29118669 5.889849,2.36741729 6.03429771,2.50388558 L10.1573197,6.40286304 C10.3995686,6.63264451 10.4644535,6.99318939 10.3165755,7.30141287 L10.3166396,7.30141289 Z" id="go_yellow" fill="#FFFFFF" fill-rule="nonzero"></path>
    </g>
</svg>