<?xml version="1.0" encoding="UTF-8"?>
<svg width="22px" height="22px" viewBox="0 0 22 22" version="1.1" xmlns="http://www.w3.org/2000/svg" xmlns:xlink="http://www.w3.org/1999/xlink">
    <!-- Generator: Sketch 52 (66869) - http://www.bohemiancoding.com/sketch -->
    <title>inspect-icon</title>
    <desc>Created with Sketch.</desc>
    <g id="inspect-icon" stroke="none" stroke-width="1" fill="none" fill-rule="evenodd">
        <g id="patrol-icon" fill="#65C0F4">
            <g id="放大镜" transform="translate(11.000000, 11.000000) scale(-1, 1) translate(-11.000000, -11.000000) ">
                <path d="M13.8910439,12.7771737 C14.4742035,11.9698183 14.8181818,10.9788558 14.8181818,9.90908224 C14.8181818,7.2022611 12.615904,5 9.9090475,5 C7.20219099,5 5,7.2022611 5,9.90908224 C5,12.6159381 7.20219099,14.8181818 9.9090475,14.8181818 C10.9788424,14.8181818 11.9698239,14.4741969 12.777191,13.8910275 C12.8044642,13.930596 12.8356988,13.9682568 12.8708949,14.0034557 L15.6328991,16.7654821 C15.7893187,16.9217837 15.9941824,17 16.1991769,17 C16.4041715,17 16.6090352,16.9217837 16.7654547,16.7654634 C17.0781818,16.4526733 17.0781818,15.9456046 16.7654547,15.6328705 L14.0034692,12.8708441 C13.9682683,12.8356614 13.9306088,12.8044379 13.8910439,12.7771737 Z M11,22 C4.92486775,22 0,17.0751322 0,11 C0,4.92486775 4.92486775,0 11,0 C17.0751322,0 22,4.92486775 22,11 C22,17.0751322 17.0751322,22 11,22 Z" id="Combined-Shape"></path>
                <path d="M9.9090475,6.20833285 C7.86842308,6.20833285 6.20834646,7.86849703 6.20834646,9.90908224 C6.20834646,11.9496848 7.86842308,13.6098663 9.9090475,13.6098663 C11.9496546,13.6098663 13.6098354,11.9496848 13.6098354,9.90908224 C13.6098354,7.86849703 11.9496546,6.20833285 9.9090475,6.20833285 Z" id="Path"></path>
            </g>
        </g>
    </g>
</svg>