<?xml version="1.0" encoding="UTF-8"?>
<svg width="12px" height="12px" viewBox="0 0 12 12" version="1.1" xmlns="http://www.w3.org/2000/svg" xmlns:xlink="http://www.w3.org/1999/xlink">
    <!-- Generator: Sketch 52 (66869) - http://www.bohemiancoding.com/sketch -->
    <title>inspect</title>
    <desc>Created with Sketch.</desc>
    <g id="inspect" stroke="none" stroke-width="1" fill="none" fill-rule="evenodd">
        <g transform="translate(6.000000, 6.000000) scale(-1, 1) translate(-6.000000, -6.000000) " fill="#FFFFFF">
            <path d="M4.9090475,9.81818182 C2.20219099,9.81818182 0,7.6159381 0,4.90908224 C0,2.2022611 2.20219099,0 4.9090475,0 C7.61590402,0 9.81818182,2.2022611 9.81818182,4.90908224 C9.81818182,7.61592073 7.61590402,9.81818182 4.9090475,9.81818182 Z M4.9090475,1.20833285 C2.86842308,1.20833285 1.20834646,2.86849703 1.20834646,4.90908224 C1.20834646,6.9496848 2.86842308,8.60986635 4.9090475,8.60986635 C6.94965456,8.60986635 8.60983535,6.9496848 8.60983535,4.90908224 C8.60983535,2.86849703 6.94965456,1.20833285 4.9090475,1.20833285 Z" id="Combined-Shape"></path>
            <path d="M11.1991769,12 C10.9941824,12 10.7893187,11.9217837 10.6328991,11.7654821 L7.87089487,9.00345573 C7.55818656,8.69072164 7.55818656,8.18365299 7.87089487,7.87084408 C8.18371536,7.55820349 8.6906674,7.55820349 9.00346917,7.87084408 L11.7654547,10.6328705 C12.0781818,10.9456046 12.0781818,11.4526733 11.7654547,11.7654634 C11.6090352,11.9217837 11.4041715,12 11.1991769,12" id="Shape"></path>
        </g>
    </g>
</svg>