<?xml version="1.0" encoding="UTF-8"?>
<svg width="35px" height="38px" viewBox="0 0 35 38" version="1.1" xmlns="http://www.w3.org/2000/svg" xmlns:xlink="http://www.w3.org/1999/xlink">
    <!-- Generator: Sketch 52 (66869) - http://www.bohemiancoding.com/sketch -->
    <title>list</title>
    <desc>Created with Sketch.</desc>
    <g id="list" stroke="none" stroke-width="1" fill="none" fill-rule="evenodd">
        <g id="创建服务">
            <path d="M32.1780441,4 L2.82261241,4 L2.8219558,4 C1.26350774,4.0001761 0.000181276438,5.22739601 0,6.74130279 L0,35.2583783 C0,36.7725342 1.26357963,38 2.82228411,38 L32.1773875,38 C33.7362733,38 34.9999999,36.7723914 34.9999999,35.2580594 L34.9999999,6.74194063 C35.0001741,6.01479142 34.7029386,5.31736645 34.1737004,4.80313449 C33.6444621,4.28890253 32.9265871,3.99999998 32.1780441,4 Z" id="路径" fill="#61BC61"></path>
            <path d="M27.7277232,33.0002908 L7.27293753,33.0002908 C6.01770437,33.0001302 5.00018244,32.1046636 5,31 L5,32 C5,32.530433 5.2394347,33.0391408 5.66563121,33.4142136 C6.09182771,33.7892863 6.66987422,34 7.2726071,34 L27.7273928,34 C28.9824435,33.9998394 29.9998175,33.104503 29.9999999,32 L30,31 C30.0001752,31.5304566 29.7608527,32.0392399 29.3346992,32.4143839 C28.9085456,32.7895279 28.330483,33.0002908 27.7277232,33.0002908 Z" id="路径" fill="#191919"></path>
            <path d="M27.7277233,6 L7.27293754,6 C6.01775783,5.99999999 5.00018247,6.98669642 5,8.20396391 L5,30.7957156 C4.99999999,32.0129831 6.01742741,32.999823 7.2726071,33 L27.7273929,33 C28.982497,32.9996462 29.9998176,32.0129099 30,30.7957156 L30,8.20396391 C30.0000876,7.61946581 29.7607264,7.05887815 29.3345824,6.64554553 C28.9084383,6.23221291 28.3304258,6.00000001 27.7277233,6 Z" id="路径" fill="#FFFFFF"></path>
            <path d="M25.8753884,2.00029078 L20.7838879,2.00029078 C20.6425755,0.876708344 19.5833863,0 18.28148,0 C16.9799008,0 15.9200574,0.87699914 15.778745,2.00029078 L10.1252658,2.00029078 L10.1249387,2.00029078 C9.503727,2.00045127 9.00018054,2.44807252 9,3.00029079 L9,5.99999999 C9,6.55248619 9.50375272,7 10.1249387,7 L25.8750613,7 C26.4965744,7 27,6.55219539 27,5.99999999 L27,3.00029079 C27,2.44811958 26.4965472,2.00045135 25.8753884,2.00029078 Z M18.28148,3.50043619 C17.9086047,3.50043619 17.5510014,3.36876312 17.2873388,3.13438354 C17.0236761,2.90000396 16.875552,2.58211703 16.875552,2.25065426 L16.875552,2.2503635 C16.8756104,1.80391137 17.1436016,1.3914003 17.5785759,1.16821922 C18.0135501,0.945038134 18.5494245,0.945093551 18.9843403,1.1683646 C19.4192561,1.39163564 19.6871393,1.80420213 19.6870809,2.25065426 C19.6869004,2.94070976 19.05775,3.50011519 18.28148,3.50043619 Z" id="形状" fill="#BCBCBC" fill-rule="nonzero"></path>
            <path d="M25.8747547,7 L10.1252453,7 C9.5039172,7.00000002 9.0001806,6.55233178 9,6 L9,7 C9,7.55248619 9.50374357,8 10.1249182,8 L25.8750818,8 C26.4962822,7.99983951 26.9998195,7.55221826 27,7 L27,6 C26.9994587,6.55219882 26.4959333,6.99967933 25.8747547,7 Z" id="路径" fill="#A5A5A5"></path>
            <path d="M11.8903411,12.1479612 L11.6496661,12.0513796 C11.6496661,12.0513796 11.4569517,11.9271036 11.3220807,12.0651105 L10.1500983,13.3350999 C10.0812094,13.4177179 9.98964828,13.3497617 9.98964828,13.3497617 L9.4734179,13.0109117 C9.4734179,13.0109117 9.31936268,12.9420246 9.22315081,13.0937623 L9.01008949,13.31462 C9.01008949,13.31462 8.94992075,13.4095725 9.12345089,13.4784595 L9.82425687,13.9180802 C9.82425687,13.9180802 9.94168764,14 10.073652,14 L10.287004,13.9988364 C10.287004,13.9988364 10.5227375,13.9918546 10.6334829,13.8317386 L11.9632993,12.3031898 C11.962718,12.3034226 12.0833461,12.2168483 11.8903411,12.1479612 Z" id="路径" fill="#61BC61"></path>
            <path d="M9,20.1291763 L12.374816,20.1291763 L12.374816,16.8386891 L9,16.8386891 L9,20.1291763 Z M14.6250205,19.0324535 L27,19.0324535 L27,17.9357308 L14.6250205,17.9357308 L14.6250205,19.0324535 Z M9,25.064907 L12.374816,25.064907 L12.374816,21.7747388 L9,21.7747388 L9,25.064907 Z M14.6250205,23.9681843 L27,23.9681843 L27,22.8711426 L14.6250205,22.8711426 L14.6250205,23.9681843 Z M9,30 L12.374816,30 L12.374816,26.7101506 L9,26.7101506 L9,30 Z M14.6250205,28.9032772 L27,28.9032772 L27,27.8068734 L14.6250205,27.8068734 L14.6250205,28.9032772 Z M14.6250205,13 L14.6250205,14.0967227 L27,14.0967227 L27,13 L14.6250205,13 Z" id="形状" fill="#C6C6C6" fill-rule="nonzero"></path>
        </g>
    </g>
</svg>