<?xml version="1.0" encoding="UTF-8"?>
<svg width="20px" height="20px" viewBox="0 0 20 20" version="1.1" xmlns="http://www.w3.org/2000/svg" xmlns:xlink="http://www.w3.org/1999/xlink">
    <!-- Generator: Sketch 52 (66869) - http://www.bohemiancoding.com/sketch -->
    <title>location</title>
    <desc>Created with Sketch.</desc>
    <g id="location" stroke="none" stroke-width="1" fill="none" fill-rule="evenodd">
        <path d="M13.6505549,6.81112161 C13.6505549,4.69735537 11.9369776,2.98382527 9.82316411,2.98382527 C7.70939787,2.98382527 5.99586777,4.69737898 5.99586777,6.81112161 C5.99586777,8.92495868 7.70942149,10.6384652 9.82316411,10.6384652 C11.936954,10.6384652 13.6505549,8.92495868 13.6505549,6.81112161 Z M6.84632822,6.81112161 C6.84632822,5.16710744 8.17910272,3.83428571 9.82316411,3.83428571 C11.4672255,3.83428571 12.8,5.16708383 12.8,6.81112161 C12.8,8.455183 11.4672255,9.78798111 9.82316411,9.78798111 C8.17910272,9.78798111 6.84632822,8.455183 6.84632822,6.81112161 Z M16.6273672,6.81112161 C16.6273672,3.05329398 13.5810153,0.00698937426 9.82316411,0.00698937426 C6.06536009,0.00698937426 3.01898465,3.05329398 3.01898465,6.81112161 C3.01898465,10.5689728 9.82316411,18.7184652 9.82316411,18.7184652 C9.82316411,18.7184652 16.6273672,10.5689728 16.6273672,6.81112161 Z M9.82316411,0.857497048 C13.1112869,0.857497048 15.7768123,3.52299882 15.7768123,6.81109799 C15.7768123,10.0992444 9.82316411,17.4426682 9.82316411,17.4426682 C9.82316411,17.4426682 3.86951594,10.099268 3.86951594,6.81112161 C3.86951594,3.52299882 6.53504132,0.857497048 9.82316411,0.857497048 Z M12.8308383,15.9924675 C12.6517454,16.2381941 12.4708907,16.4826317 12.2882881,16.7257615 C14.1041322,16.9348996 15.3515466,17.367745 15.3515466,17.8678867 C15.3515466,18.5724911 12.8764109,19.1437072 9.82316411,19.1437072 C6.76996458,19.1437072 4.29482881,18.5724911 4.29482881,17.8678867 C4.29482881,17.367745 5.5422196,16.934876 7.35804014,16.7257615 C7.17542628,16.4826401 6.9945715,16.2382024 6.81548996,15.9924675 C4.80913813,16.3507202 3.44427391,17.0561275 3.44427391,17.8678867 C3.44427391,19.042196 6.30023613,19.9942385 9.82318772,19.9942385 C13.3461865,19.9942385 16.2021015,19.0422196 16.2021015,17.8678867 C16.2020543,17.0561275 14.8372137,16.3507202 12.8308383,15.9924675 Z" id="形状" fill="#FFFFFF" fill-rule="nonzero"></path>
    </g>
</svg>