<?xml version="1.0" encoding="UTF-8"?>
<svg width="30px" height="30px" viewBox="0 0 30 30" version="1.1" xmlns="http://www.w3.org/2000/svg" xmlns:xlink="http://www.w3.org/1999/xlink">
    <!-- Generator: Sketch 52 (66869) - http://www.bohemiancoding.com/sketch -->
    <title>logout</title>
    <desc>Created with Sketch.</desc>
    <g id="logout" stroke="none" stroke-width="1" fill="none" fill-rule="evenodd">
        <g fill="#00F6FF" fill-rule="nonzero" id="形状">
            <path d="M22.3127273,18.6554545 C21.9372727,19.5936364 21.2809091,20.4372727 20.6245455,21.1863636 C19.9051828,21.9164107 19.0438224,22.4912698 18.0936364,22.8754545 C17.1563636,23.25 16.1254545,23.5309091 15,23.5309091 C13.8745455,23.5309091 12.8445455,23.3436364 11.9063636,22.8754545 C10.9939895,22.4229326 10.1434155,21.8552722 9.37545454,21.1863636 C8.64588205,20.46698 8.07162347,19.6055921 7.68818183,18.6554545 C7.3118182,17.7190909 7.0309091,16.6863636 7.0309091,15.5618182 C7.0309091,14.9072727 7.12545457,14.25 7.2190909,13.6872727 C7.40545453,13.0327273 7.59363636,12.4690909 7.87454546,11.9054545 C8.15636364,11.3445454 8.5309091,10.8754545 8.90636364,10.3118182 C9.3053581,9.80524449 9.77965525,9.36283286 10.3127273,9 C10.5945455,8.81181817 10.8754546,8.7190909 11.1563636,8.81181817 C11.4381818,8.90727272 11.7190909,9 11.9063636,9.2809091 C12.0945455,9.5618182 12.1881818,9.84454547 12.0945455,10.1245455 C12,10.4063636 11.9063636,10.6863636 11.6245455,10.8745455 C10.8745455,11.4372727 10.2190909,12.0936364 9.84363636,12.9363636 C9.4690909,13.7818182 9.18636363,14.6245455 9.18636363,15.5618182 C9.18636363,16.3118182 9.37454546,17.0618182 9.65545453,17.8118182 C9.93727271,18.5618182 10.4054545,19.1254545 10.8745455,19.5936364 C11.3821174,20.1134913 11.9877362,20.5275369 12.6563636,20.8118182 C13.3654545,21.1209091 14.1318182,21.28 14.9054545,21.2809091 C15.6554545,21.2809091 16.4054545,21.0936364 17.1563636,20.8118182 C17.9063636,20.5309091 18.4690909,20.0618182 18.9372727,19.5936364 C19.4571277,19.0860644 19.8711732,18.4804456 20.1554545,17.8118182 C20.4645454,17.1018182 20.6236363,16.3363636 20.6254545,15.5618182 C20.6254545,14.6254545 20.4381818,13.7809091 20.0636364,13.0309091 C19.6881818,12.2809091 19.1254545,11.5309091 18.3745455,11.0618182 C18.0945455,10.8754545 18,10.5945454 17.9063636,10.3118182 C17.8118182,10.0309091 17.9063636,9.75 18.0945455,9.4690909 C18.2809091,9.18727271 18.5627273,9.09454544 18.8445455,9 C19.1254546,8.90636364 19.4054546,9 19.6872727,9.18636363 C20.1703248,9.57630664 20.6103915,10.016678 21,10.5 C21.3745455,10.9690909 21.75,11.5309091 22.0309091,12 C22.3127273,12.5618182 22.5,13.1254545 22.6881818,13.6872727 C22.8754545,14.25 22.8754545,14.9054545 22.8754545,15.5618182 C22.9690909,16.6872727 22.7809091,17.7190909 22.3127273,18.6572727 L22.3127273,18.6554545 Z M13.8745455,7.78181818 C13.8745455,7.50090908 13.9690909,7.22000001 14.25,6.93727271 C14.4690909,6.70363635 14.7736364,6.56909089 15.0936364,6.56272729 C15.3754545,6.56272729 15.6554545,6.65818184 15.8436364,6.93727271 C16.0781818,7.15727271 16.2136363,7.46181817 16.2190909,7.78272727 L16.2190909,14.5327273 C16.2190909,14.8127273 16.1245454,15.0954546 15.8436364,15.2836364 C15.6554545,15.47 15.3754545,15.6563636 15.0936364,15.6563636 C14.8118182,15.6563636 14.5309091,15.5627273 14.25,15.2818182 C14.0627273,15.0945455 13.8745455,14.8127273 13.8745455,14.5318182 L13.8745455,7.7809091 L13.8745455,7.78181818 Z M15,0 C6.75,0 0,6.75 0,15 C0,23.25 6.75,30 15,30 C23.25,30 30,23.25 30,15 C30,6.75 23.25,0 15,0 Z"></path>
        </g>
    </g>
</svg>