<?xml version="1.0" encoding="UTF-8"?>
<svg width="30px" height="7px" viewBox="0 0 30 7" version="1.1" xmlns="http://www.w3.org/2000/svg" xmlns:xlink="http://www.w3.org/1999/xlink">
    <!-- Generator: Sketch 52 (66869) - http://www.bohemiancoding.com/sketch -->
    <title>more</title>
    <desc>Created with Sketch.</desc>
    <g id="more" stroke="none" stroke-width="1" fill="none" fill-rule="evenodd">
        <path d="M3,0 C1.35,0 0,1.35714286 0,3.01587302 C0,4.67460317 1.35,6.03174603 3,6.03174603 C4.65,6.03174603 6,4.67460317 6,3.01587302 C6,1.35714286 4.65,0 3,0 Z M27,0 C25.35,0 24,1.35714286 24,3.01587302 C24,4.67460317 25.35,6.03174603 27,6.03174603 C28.65,6.03174603 30,4.67460317 30,3.01587302 C30,1.35714286 28.65,0 27,0 Z M15,0 C13.35,0 12,1.35714286 12,3.01587302 C12,4.67460317 13.35,6.03174603 15,6.03174603 C16.65,6.03174603 18,4.67460317 18,3.01587302 C18,1.35714286 16.65,0 15,0 Z" fill="#FFFFFF" fill-rule="nonzero"></path>
    </g>
</svg>