<?xml version="1.0" encoding="UTF-8"?>
<svg width="22px" height="22px" viewBox="0 0 22 22" version="1.1" xmlns="http://www.w3.org/2000/svg" xmlns:xlink="http://www.w3.org/1999/xlink">
    <!-- Generator: Sketch 52 (66869) - http://www.bohemiancoding.com/sketch -->
    <title>patrol-icon</title>
    <desc>Created with Sketch.</desc>
    <g id="patrol-icon" stroke="none" stroke-width="1" fill="none" fill-rule="evenodd">
        <g fill="#65C0F4" id="Combined-Shape">
            <path d="M11,22 C4.92486775,22 0,17.0751322 0,11 C0,4.92486775 4.92486775,0 11,0 C17.0751322,0 22,4.92486775 22,11 C22,17.0751322 17.0751322,22 11,22 Z M15.8485832,10.5494164 C15.8485832,10.5494164 16.663145,10.3722652 16.4705278,9.65544822 C16.279071,8.94332395 15.5074419,9.21433006 15.5074419,9.21433006 C15.5074419,9.21433006 14.1521596,9.65779459 13.9595424,9.51114627 C13.7622838,9.35863201 13.0567944,8.20656276 12.0507757,7.97427182 C11.0493985,7.73728812 9.87280916,7.92499798 9.19052662,8.26287572 C8.51288544,8.59840709 7.57068573,10.3793044 7.21678067,11.0022664 C6.79093425,11.7507595 7.81551842,12.4945598 8.38988893,11.6932734 C9.0362008,10.7934392 9.42259551,10.1024323 9.52006445,9.93466663 C9.61753338,9.76572776 9.8031885,9.56276648 9.9807212,9.65779459 C10.1095194,9.7270126 9.78578333,10.8321544 9.78578333,10.8321544 C9.78578333,10.8321544 9.20096972,12.4922134 9.19052662,12.7010406 C8.93641118,13.2547847 8.8377819,13.8261266 8.66373023,13.9246743 C8.49199924,14.0220488 7.00211694,13.193779 7.00211694,13.193779 C7.00211694,13.193779 6.19567753,12.9802591 6.02278621,13.7627745 C5.85337592,14.5511559 6.68418256,14.75881 6.68418256,14.75881 C6.68418256,14.75881 8.78788708,16.0504884 9.50614031,15.8745104 C10.0654263,15.7384208 10.6316744,13.7334449 10.896233,13.6607073 C11.1584708,13.5891429 12.3048912,13.8272998 12.3559463,13.9692554 C12.4104825,14.1112109 13.0254651,16.4599305 13.0254651,16.4599305 C13.0254651,16.4599305 13.0649168,17.191999 13.9456183,16.9514957 C14.8251594,16.7109925 14.5153474,16.0528348 14.5153474,16.0528348 C14.5153474,16.0528348 13.7843304,12.9908177 13.7193511,12.7080798 C13.6624942,12.4288614 12.0971895,11.949028 11.7955,11.9584135 C11.9904378,11.3694739 12.3164946,10.5013158 12.4174446,10.2056727 C12.5752514,10.2396952 13.1635461,11.1829372 13.638127,11.0527135 C14.1173492,10.9224898 15.8485832,10.5494164 15.8485832,10.5494164 Z M12.6785221,7.61410353 C13.3863322,7.41935455 13.8052166,6.69197886 13.6137597,5.98102777 C13.4246236,5.27359625 12.6994083,4.85359545 11.9904378,5.04717124 C11.280307,5.24192021 10.866064,5.97398865 11.0552002,6.68142018 C11.2454967,7.39237126 11.9683913,7.8088525 12.6785221,7.61410353 Z"></path>
        </g>
    </g>
</svg>