<?xml version="1.0" encoding="UTF-8"?>
<svg width="17px" height="19px" viewBox="0 0 17 19" version="1.1" xmlns="http://www.w3.org/2000/svg" xmlns:xlink="http://www.w3.org/1999/xlink">
    <!-- Generator: Sketch 52 (66869) - http://www.bohemiancoding.com/sketch -->
    <title>patrol</title>
    <desc>Created with Sketch.</desc>
    <g id="patrol" stroke="none" stroke-width="1" fill="none" fill-rule="evenodd">
        <g fill="#FFFFFF" id="Shape">
            <path d="M15.1516664,8.12504413 C15.1516664,8.12504413 12.4882296,8.69900311 11.7509646,8.89934729 C11.0208401,9.09969146 10.1157714,7.64854988 9.87299168,7.59620771 C9.71768403,8.05104313 9.21605819,9.38667095 8.91615377,10.292732 C9.38029156,10.2782928 11.7884526,11.0164979 11.8759247,11.4460647 C11.9758929,11.8810462 13.1005345,16.5918416 13.1005345,16.5918416 C13.1005345,16.5918416 13.5771683,17.6043919 12.2240281,17.9743969 C10.8691028,18.3444019 10.8084078,17.2181428 10.8084078,17.2181428 C10.8084078,17.2181428 9.8622808,13.604728 9.77837897,13.3863348 C9.69983258,13.1679416 7.93610898,12.8015464 7.53266614,12.9116455 C7.125653,13.0235494 6.25450207,16.1081278 5.39406202,16.3174964 C4.28905705,16.5882318 1.05258855,14.6010342 1.05258855,14.6010342 C1.05258855,14.6010342 -0.225575515,14.2815665 0.0350557052,13.068672 C0.301042361,11.864802 1.54171837,12.1932943 1.54171837,12.1932943 C1.54171837,12.1932943 3.83384499,13.4675554 4.0980465,13.3177485 C4.3658183,13.1661367 4.51755566,12.2871492 4.90850248,11.4352353 C4.92456879,11.1139626 5.82428204,8.56002562 5.82428204,8.56002562 C5.82428204,8.56002562 6.32233759,6.8598075 6.12418646,6.75331825 C5.85105922,6.60712115 5.56543597,6.91936928 5.41548376,7.17927523 C5.26553155,7.43737629 4.67107815,8.50046384 3.6767522,9.88482404 C2.79310526,11.1175724 1.21682192,9.97326426 1.87197026,8.82173648 C2.41643959,7.86333327 3.86597761,5.12349132 4.90850248,4.60728922 C5.95816795,4.08747731 7.76830532,3.79869291 9.30888575,4.16328321 C10.8566068,4.5206539 11.9419751,6.29306812 12.2454498,6.52770544 C12.541784,6.75331825 14.6268337,6.07106512 14.6268337,6.07106512 C14.6268337,6.07106512 15.8139554,5.65413265 16.1085044,6.74970845 C16.4048385,7.85250386 15.1516664,8.12504413 15.1516664,8.12504413 Z"></path>
            <path d="M10.5677663,4.02169774 C9.47525738,4.32131155 8.36311183,3.68057117 8.070348,2.58680027 C7.77936931,1.49844408 8.41666619,0.372184943 9.50917514,0.0725711331 C10.5998989,-0.225237774 11.7156148,0.42091731 12.0065935,1.5092735 C12.3011425,2.60304439 11.656705,3.72208393 10.5677663,4.02169774 Z"></path>
        </g>
    </g>
</svg>