<?xml version="1.0" encoding="UTF-8"?>
<svg width="20px" height="20px" viewBox="0 0 20 20" version="1.1" xmlns="http://www.w3.org/2000/svg" xmlns:xlink="http://www.w3.org/1999/xlink">
    <!-- Generator: Sketch 52 (66869) - http://www.bohemiancoding.com/sketch -->
    <title>phone</title>
    <desc>Created with Sketch.</desc>
    <g id="phone" stroke="none" stroke-width="1" fill="none" fill-rule="evenodd">
        <g transform="translate(10.609375, 10.000000) scale(-1, 1) translate(-10.609375, -10.000000) translate(0.609375, 0.000000)" fill="#FFFFFF" fill-rule="nonzero" id="形状">
            <path d="M0,9.99976487 C0,15.5226895 4.47726568,19.999888 10.0002127,19.9998656 C15.5227119,19.9998656 19.9999552,15.5226671 20,9.99976487 C20,4.47681781 15.5227567,2.23933823e-05 10.0002351,0 C4.47724329,2.23933823e-05 2.23933823e-05,4.47681781 0,9.99976487 Z M14.59791,6.10846683 C15.3030552,6.81325375 14.63468,9.44122913 12.0385256,12.0376298 C9.44160982,14.6340529 6.81405991,15.301331 6.10931777,14.5973502 C5.49847109,13.985675 4.43070984,13.2408935 5.82062229,12.1246057 C7.21096022,11.0074895 7.59930625,11.5570902 8.22974715,12.1866802 C8.67031455,12.6280762 9.78465404,11.7081784 10.746629,10.7461587 C11.7082008,9.78333283 12.6273596,8.66986668 12.1880462,8.22847072 C11.5575605,7.59802983 11.0083852,7.2093255 12.1255239,5.81979373 C13.2430432,4.43030676 13.9869738,5.49721706 14.5978876,6.10846683 L14.59791,6.10846683 Z"></path>
        </g>
    </g>
</svg>