<?xml version="1.0" encoding="UTF-8"?>
<svg width="50px" height="45px" viewBox="0 0 50 45" version="1.1" xmlns="http://www.w3.org/2000/svg" xmlns:xlink="http://www.w3.org/1999/xlink">
    <!-- Generator: Sketch 52 (66869) - http://www.bohemiancoding.com/sketch -->
    <title>photoalbum@3x</title>
    <desc>Created with Sketch.</desc>
    <g id="photoalbum" stroke="none" stroke-width="1" fill="none" fill-rule="evenodd">
        <path d="M47.4994945,-3.55271368e-15 L2.50112431,-3.55271368e-15 C1.11990848,-3.55271368e-15 0,1.11873948 0,2.49988657 L0,42.4983462 C0,43.8783931 1.11990848,44.9972013 2.50112431,44.9972013 L47.5014887,44.9972013 C48.8827046,44.9972013 49.9999999,43.8783931 49.9999999,42.4983462 L50,2.49995531 C49.9984184,1.11873948 48.8804353,-3.55271368e-15 47.4994945,-3.55271368e-15 Z M42.4991026,37.4960976 L7.49952208,37.4961664 L7.49952208,24.9997593 L15.0011071,17.4987244 L27.5003335,29.9973319 L35.0020561,22.498635 L42.5015782,29.9973319 L42.5015782,37.4961664 L42.4991026,37.4961664 L42.4991026,37.4960976 Z M37.4989857,17.4987244 C34.73566,17.4987244 32.5009318,15.2601453 32.5009318,12.5000516 C32.5009318,9.73493804 34.7356601,7.49993468 37.4989857,7.49993468 C40.2640993,7.49993468 42.4991026,9.73493804 42.4991026,12.5000516 C42.4991026,15.2601453 40.2640992,17.4987244 37.4989857,17.4987244 Z" fill="#FFFFFF" fill-rule="nonzero"></path>
    </g>
</svg>