<?xml version="1.0" encoding="UTF-8"?>
<svg width="31px" height="30px" viewBox="0 0 31 30" version="1.1" xmlns="http://www.w3.org/2000/svg" xmlns:xlink="http://www.w3.org/1999/xlink">
    <!-- Generator: Sketch 52 (66869) - http://www.bohemiancoding.com/sketch -->
    <title>plan</title>
    <desc>Created with Sketch.</desc>
    <g id="plan" stroke="none" stroke-width="1" fill="none" fill-rule="evenodd">
        <g fill="#00F6FF" fill-rule="nonzero" id="形状">
            <path d="M15.0170277,3.21452965 C7.62042427,3.21452965 1.62429249,9.21066143 1.62429249,16.6072648 C1.62429249,24.0038682 7.62042427,30 15.0170277,30 C22.4136311,30 28.4097628,24.0038682 28.4097628,16.6072648 C28.4097628,9.21066143 22.4136311,3.21452965 15.0170277,3.21452965 Z M16.0884465,17.4108289 C16.1403568,17.7559258 16.0155995,18.1040388 15.7563067,18.3376062 L10.934922,23.1589909 C10.7259753,23.3666981 10.3885185,23.3666981 10.1795717,23.1589909 L9.42422147,22.4036406 C9.32280491,22.3030523 9.26575953,22.1661272 9.26575953,22.0232869 C9.26575953,21.8804467 9.32280491,21.7435216 9.42422147,21.6429333 L13.8170386,17.2501161 C13.9173162,17.1490177 13.9732176,17.0121556 13.9723943,16.8697624 L13.9723943,8.00377175 C13.9723943,7.70790761 14.2122396,7.46806233 14.5081037,7.46806233 L15.5795226,7.46806233 C15.8753867,7.46806235 16.115232,7.70790762 16.115232,8.00377175 L16.0884465,17.4108289 Z"></path>
            <path d="M27.0222755,9.0537622 L26.2669252,8.29305483 C25.8515109,7.87516136 25.8515109,7.20024777 26.2669252,6.7823543 L26.6472789,6.40200062 C26.7475565,6.30090216 26.8034579,6.16404009 26.8026346,6.02164693 C26.8034579,5.87925378 26.7475565,5.74239173 26.6472789,5.64129328 L24.3705139,3.36988538 C24.1615672,3.16217821 23.8241104,3.16217821 23.6151637,3.36988538 L23.23481,3.75023906 C23.0338458,3.95142691 22.7611456,4.0644719 22.4767812,4.0644719 C22.1924167,4.0644719 21.9197165,3.95142691 21.7187524,3.75023906 L20.9634021,2.99488881 C20.7622142,2.79392465 20.6491693,2.52122445 20.6491693,2.23685999 C20.6491693,1.95249552 20.7622142,1.67979532 20.9634021,1.47883116 L21.3437558,1.09847751 C22.0470218,0.395139729 23.0008982,2.64477857e-06 23.9955173,2.64477857e-06 C24.9901364,2.64477857e-06 25.9440129,0.395139729 26.6472789,1.09847751 L28.7901165,3.27345768 C29.4720228,3.90387324 29.9069613,4.75665658 30.0168911,5.67879293 C30.1217125,6.78651776 29.7291999,7.88359034 28.9454723,8.67340852 L28.5651186,9.0537622 C28.3631741,9.26328014 28.0846942,9.38164413 27.793697,9.38164413 C27.5026999,9.38164413 27.22422,9.26328014 27.0222755,9.0537622 Z M1.49572225,9.0537622 L1.21715335,8.7751933 C0.548129498,8.13845186 0.12350789,7.28731301 0.0171642773,6.36985805 C-0.0892935833,5.26033116 0.303343013,4.16094871 1.08858311,3.36988538 L3.38677646,1.09847751 C4.09004247,0.395139738 5.04391894,2.6594285e-06 6.03853802,2.6594285e-06 C7.03315709,2.6594285e-06 7.98703356,0.395139738 8.69029957,1.09847751 L9.07065325,1.47883116 C9.27184111,1.67979532 9.3848861,1.95249552 9.3848861,2.23685999 C9.3848861,2.52122445 9.27184111,2.79392465 9.07065325,2.99488881 L8.315303,3.75023906 C8.11433884,3.95142691 7.84163865,4.0644719 7.55727419,4.0644719 C7.27290973,4.0644719 7.00020954,3.95142691 6.79924538,3.75023906 L6.44567716,3.36988538 C6.23673042,3.16217821 5.89927364,3.16217821 5.6903269,3.36988538 L3.38677646,5.64129328 C3.28649889,5.74239173 3.23059749,5.87925378 3.23142073,6.02164693 C3.23059748,6.16404009 3.28649889,6.30090216 3.38677646,6.40200062 L3.76713015,6.7823543 C4.1825445,7.20024777 4.1825445,7.87516136 3.76713015,8.29305483 L3.01177986,9.0537622 C2.8108157,9.25495005 2.53811551,9.36799503 2.25375105,9.36799503 C1.9693866,9.36799503 1.69668641,9.25495005 1.49572225,9.0537622 Z"></path>
        </g>
    </g>
</svg>