<?xml version="1.0" encoding="UTF-8"?>
<svg width="50px" height="50px" viewBox="0 0 50 50" version="1.1" xmlns="http://www.w3.org/2000/svg" xmlns:xlink="http://www.w3.org/1999/xlink">
    <!-- Generator: Sketch 52 (66869) - http://www.bohemiancoding.com/sketch -->
    <title>pointlist-icon</title>
    <desc>Created with Sketch.</desc>
    <defs>
        <linearGradient x1="0%" y1="0%" x2="101.999998%" y2="100.999999%" id="linearGradient-1">
            <stop stop-color="#3023AE" offset="0%"></stop>
            <stop stop-color="#C86DD7" offset="100%"></stop>
        </linearGradient>
    </defs>
    <g id="pointlist-icon" stroke="none" stroke-width="1" fill="none" fill-rule="evenodd">
        <g id="orderlist-icon">
            <circle id="Oval" fill="url(#linearGradient-1)" cx="25" cy="25" r="25"></circle>
            <path d="M20.8571429,17.2857143 C21.3714286,17.2857143 21.7142857,16.9428571 21.7142857,16.4285714 L21.7142857,13.8571429 C21.7142857,13.3428571 21.3714286,13 20.8571429,13 C20.3428571,13 20,13.3428571 20,13.8571429 L20,16.4285714 C20,16.9428571 20.3428571,17.2857143 20.8571429,17.2857143 Z M30.2857143,17.2857143 C30.8,17.2857143 31.1428571,16.9428571 31.1428571,16.4285714 L31.1428571,13.8571429 C31.1428571,13.3428571 30.8,13 30.2857143,13 C29.7714286,13 29.4285714,13.3428571 29.4285714,13.8571429 L29.4285714,16.4285714 C29.4285714,16.9428571 29.7714286,17.2857143 30.2857143,17.2857143 Z M34.5714286,34.4285714 C34.5714286,34.9428571 34.2285714,35.2857143 33.7142857,35.2857143 L16.5714286,35.2857143 C16.0571429,35.2857143 15.7142857,34.9428571 15.7142857,34.4285714 L15.7142857,21.5714286 L34.5714286,21.5714286 L34.5714286,34.4285714 Z M34.0571429,14.7142857 L32.8571429,14.7142857 C32.3428571,14.7142857 32,15.0571429 32,15.5714286 C32,16.0857143 32.3428571,16.4285714 32.8571429,16.4285714 L34.0571429,16.4285714 C34.2285714,16.4285714 34.5714286,16.7714286 34.5714286,17.2857143 L34.5714286,19.8571429 L15.7142857,19.8571429 L15.7142857,17.2857143 C15.7142857,16.7714286 16.0571429,16.4285714 16.5714286,16.4285714 L18.2857143,16.4285714 C18.8,16.4285714 19.1428571,16.0857143 19.1428571,15.5714286 C19.1428571,15.0571429 18.8,14.7142857 18.2857143,14.7142857 L16.5714286,14.7142857 C15.2,14.7142857 14,15.9142857 14,17.2857143 L14,34.4285714 C14,35.8 15.2,37 16.5714286,37 L33.7142857,37 C35.0857143,37 36.2857143,35.8 36.2857143,34.4285714 L36.2857143,17.2857143 C36.2857143,15.9142857 35.2571429,14.7142857 34.0571429,14.7142857 Z M23.4285714,16.4285714 L27.7142857,16.4285714 C28.2285714,16.4285714 28.5714286,16.0857143 28.5714286,15.5714286 C28.5714286,15.0571429 28.2285714,14.7142857 27.7142857,14.7142857 L23.4285714,14.7142857 C22.9142857,14.7142857 22.5714286,15.0571429 22.5714286,15.5714286 C22.5714286,16.0857143 22.9142857,16.4285714 23.4285714,16.4285714 Z M18.2857143,31.8571429 L32,31.8571429 C32.5142857,31.8571429 32.8571429,31.5142857 32.8571429,31 C32.8571429,30.4857143 32.5142857,30.1428571 32,30.1428571 L18.2857143,30.1428571 C17.7714286,30.1428571 17.4285714,30.4857143 17.4285714,31 C17.4285714,31.5142857 17.7714286,31.8571429 18.2857143,31.8571429 Z M18.2857143,26.7142857 L32,26.7142857 C32.5142857,26.7142857 32.8571429,26.3714286 32.8571429,25.8571429 C32.8571429,25.3428571 32.5142857,25 32,25 L18.2857143,25 C17.7714286,25 17.4285714,25.3428571 17.4285714,25.8571429 C17.4285714,26.3714286 17.7714286,26.7142857 18.2857143,26.7142857 Z" id="Shape" fill="#FFFFFF" fill-rule="nonzero"></path>
        </g>
    </g>
</svg>