<?xml version="1.0" encoding="UTF-8"?>
<svg width="23px" height="24px" viewBox="0 0 23 24" version="1.1" xmlns="http://www.w3.org/2000/svg" xmlns:xlink="http://www.w3.org/1999/xlink">
    <!-- Generator: Sketch 52 (66869) - http://www.bohemiancoding.com/sketch -->
    <title>pointlist</title>
    <desc>Created with Sketch.</desc>
    <g id="pointlist" stroke="none" stroke-width="1" fill="none" fill-rule="evenodd">
        <path d="M6.85714286,4.28571429 C7.37142857,4.28571429 7.71428571,3.94285714 7.71428571,3.42857143 L7.71428571,0.857142857 C7.71428571,0.342857143 7.37142857,0 6.85714286,0 C6.34285714,0 6,0.342857143 6,0.857142857 L6,3.42857143 C6,3.94285714 6.34285714,4.28571429 6.85714286,4.28571429 Z M16.2857143,4.28571429 C16.8,4.28571429 17.1428571,3.94285714 17.1428571,3.42857143 L17.1428571,0.857142857 C17.1428571,0.342857143 16.8,0 16.2857143,0 C15.7714286,0 15.4285714,0.342857143 15.4285714,0.857142857 L15.4285714,3.42857143 C15.4285714,3.94285714 15.7714286,4.28571429 16.2857143,4.28571429 Z M20.5714286,21.4285714 C20.5714286,21.9428571 20.2285714,22.2857143 19.7142857,22.2857143 L2.57142857,22.2857143 C2.05714286,22.2857143 1.71428571,21.9428571 1.71428571,21.4285714 L1.71428571,8.57142857 L20.5714286,8.57142857 L20.5714286,21.4285714 Z M20.0571429,1.71428571 L18.8571429,1.71428571 C18.3428571,1.71428571 18,2.05714286 18,2.57142857 C18,3.08571429 18.3428571,3.42857143 18.8571429,3.42857143 L20.0571429,3.42857143 C20.2285714,3.42857143 20.5714286,3.77142857 20.5714286,4.28571429 L20.5714286,6.85714286 L1.71428571,6.85714286 L1.71428571,4.28571429 C1.71428571,3.77142857 2.05714286,3.42857143 2.57142857,3.42857143 L4.28571429,3.42857143 C4.8,3.42857143 5.14285714,3.08571429 5.14285714,2.57142857 C5.14285714,2.05714286 4.8,1.71428571 4.28571429,1.71428571 L2.57142857,1.71428571 C1.2,1.71428571 0,2.91428571 0,4.28571429 L0,21.4285714 C0,22.8 1.2,24 2.57142857,24 L19.7142857,24 C21.0857143,24 22.2857143,22.8 22.2857143,21.4285714 L22.2857143,4.28571429 C22.2857143,2.91428571 21.2571429,1.71428571 20.0571429,1.71428571 Z M9.42857143,3.42857143 L13.7142857,3.42857143 C14.2285714,3.42857143 14.5714286,3.08571429 14.5714286,2.57142857 C14.5714286,2.05714286 14.2285714,1.71428571 13.7142857,1.71428571 L9.42857143,1.71428571 C8.91428571,1.71428571 8.57142857,2.05714286 8.57142857,2.57142857 C8.57142857,3.08571429 8.91428571,3.42857143 9.42857143,3.42857143 Z M4.28571429,18.8571429 L18,18.8571429 C18.5142857,18.8571429 18.8571429,18.5142857 18.8571429,18 C18.8571429,17.4857143 18.5142857,17.1428571 18,17.1428571 L4.28571429,17.1428571 C3.77142857,17.1428571 3.42857143,17.4857143 3.42857143,18 C3.42857143,18.5142857 3.77142857,18.8571429 4.28571429,18.8571429 Z M4.28571429,13.7142857 L18,13.7142857 C18.5142857,13.7142857 18.8571429,13.3714286 18.8571429,12.8571429 C18.8571429,12.3428571 18.5142857,12 18,12 L4.28571429,12 C3.77142857,12 3.42857143,12.3428571 3.42857143,12.8571429 C3.42857143,13.3714286 3.77142857,13.7142857 4.28571429,13.7142857 Z" fill="#FFFFFF" fill-rule="nonzero"></path>
    </g>
</svg>