<?xml version="1.0" encoding="UTF-8"?>
<svg width="20px" height="20px" viewBox="0 0 20 20" version="1.1" xmlns="http://www.w3.org/2000/svg" xmlns:xlink="http://www.w3.org/1999/xlink">
    <!-- Generator: Sketch 52 (66869) - http://www.bohemiancoding.com/sketch -->
    <title>qrcode</title>
    <desc>Created with Sketch.</desc>
    <g id="qrcode" stroke="none" stroke-width="1" fill="none" fill-rule="evenodd">
        <g fill="#FFFFFF" fill-rule="nonzero" id="形状">
            <path d="M16.4111878,19.9972655 L16.4111878,18.1856065 L14.5597594,18.1856065 L14.5597594,19.9985737 L16.4111878,19.9972655 Z M19.1745215,19.9985737 C19.6277706,19.9985737 19.9985737,19.6277415 19.9985737,19.1745215 L19.9985737,18.1856356 L18.2240968,18.1856356 L18.2240968,19.9972655 L19.1745215,19.9985737 Z M7.25317872,1.8143644 L7.25317872,7.25320778 L1.81433534,7.25320778 L1.81433534,1.8143644 L7.25317872,1.8143644 Z M8.2420646,0.00142630682 L0.825449432,0.00142630682 C0.372229432,0.00142630682 0.00139724432,0.372258523 0.00139724432,0.825478494 L0.00139724432,8.2420646 C0.00139724432,8.69531366 0.37222946,9.06611679 0.825449432,9.06611679 L8.24203554,9.06611679 C8.69525554,9.06611679 9.06608773,8.69528457 9.06608773,8.2420646 L9.06608773,0.825478494 C9.06611682,0.372258523 8.6952846,0.00142630682 8.2420646,0.00142630682 Z M3.6273025,4.53380062 C3.6273025,5.03442966 4.03314252,5.44026967 4.53377155,5.44026967 C5.03440058,5.44026967 5.4402406,5.03442966 5.4402406,4.53380062 C5.4402406,4.03317159 5.03440058,3.62733158 4.53377155,3.62733158 C4.03314252,3.62733158 3.6273025,4.03317159 3.6273025,4.53380062 Z M18.1856356,1.8143644 L18.1856356,7.25320778 L12.7468213,7.25320778 L12.7468213,1.8143644 L18.1856356,1.8143644 Z M19.1745215,0.00142630682 L11.7579354,0.00142630682 C11.3046863,0.00142630682 10.9338832,0.372258523 10.9338832,0.825478494 L10.9338832,8.2420646 C10.9338832,8.69531366 11.3047154,9.06611679 11.7579354,9.06611679 L19.1745215,9.06611679 C19.6277706,9.06611679 19.9985737,8.69528457 19.9985737,8.2420646 L19.9985737,0.825478494 C19.9986028,0.372258523 19.6277705,0.00142630682 19.1745215,0.00142630682 Z M14.5597594,4.53380062 C14.5597594,5.03442966 14.9655994,5.44026967 15.4662284,5.44026967 C15.9668575,5.44026967 16.3726975,5.03442966 16.3726975,4.53380062 C16.3726975,4.03317159 15.9668575,3.62733158 15.4662284,3.62733158 C14.9655994,3.62733158 14.5597594,4.03317159 14.5597594,4.53380062 Z M7.25317872,12.7467922 L7.25317872,18.1856356 L1.81433534,18.1856356 L1.81433534,12.7467922 L7.25317872,12.7467922 Z M8.2420646,10.9338541 L0.825449432,10.9338541 C0.372229432,10.9338541 0.00139724432,11.3046863 0.00139724432,11.7579063 L0.00139724432,19.1744924 C0.00139724432,19.6277415 0.37222946,19.9985446 0.825449432,19.9985446 L8.24203554,19.9985446 C8.6952846,19.9985446 9.06608773,19.6277124 9.06608773,19.1744924 L9.06608773,11.7579063 C9.06611682,11.3046863 8.6952846,10.9338541 8.2420646,10.9338541 Z M3.6273025,15.4661994 C3.6273025,15.9668284 4.03314252,16.3726684 4.53377155,16.3726684 C5.03440058,16.3726684 5.4402406,15.9668284 5.4402406,15.4661994 C5.4402406,14.9655703 5.03440058,14.5597303 4.53377155,14.5597303 C4.03314252,14.5597303 3.6273025,14.9655703 3.6273025,15.4661994 Z M19.1745215,10.9338541 L18.163745,10.9338541 L18.163745,14.5597303 L16.3508069,14.5597303 L16.3508069,10.9338541 L11.7579354,10.9338541 C11.3046863,10.9338541 10.9338832,11.3046863 10.9338832,11.7579063 L10.9338832,19.1744924 C10.9338832,19.6277415 11.3047154,19.9985446 11.7579354,19.9985446 L12.7468213,19.9985446 L12.7468213,18.1856065 L12.7468213,16.3726684 L12.7468213,14.5597303 L14.5597594,14.5597303 L14.5597594,16.3726684 L19.9986028,16.3726684 L19.9986028,11.7579063 C19.9986028,11.3046863 19.6277705,10.9338541 19.1745215,10.9338541 Z"></path>
        </g>
    </g>
</svg>