<?xml version="1.0" encoding="UTF-8"?>
<svg width="70px" height="70px" viewBox="0 0 70 70" version="1.1" xmlns="http://www.w3.org/2000/svg" xmlns:xlink="http://www.w3.org/1999/xlink">
    <!-- Generator: Sketch 52 (66869) - http://www.bohemiancoding.com/sketch -->
    <title>shutter</title>
    <desc>Created with Sketch.</desc>
    <g id="shutter" stroke="none" stroke-width="1" fill="none" fill-rule="evenodd">
        <rect fill="#5F5F5F" x="0" y="0" width="70" height="70"></rect>
        <g id="分组-2" fill-rule="nonzero">
            <path d="M35,68 C53.2253967,68 68,53.2253967 68,35 C68,16.7746033 53.2253967,2 35,2 C16.7746033,2 2,16.7746033 2,35 C2,53.2253967 16.7746033,68 35,68 Z M35,68 C16.7746033,68 2,53.2253967 2,35 C2,16.7746033 16.7746033,2 35,2 C53.2253967,2 68,16.7746033 68,35 C68,53.2253967 53.2253967,68 35,68 Z" id="合并形状" stroke="#FFFFFF" stroke-width="4"></path>
            <circle id="椭圆形" fill="#FFFFFF" cx="35" cy="35" r="28"></circle>
        </g>
    </g>
</svg>