<?xml version="1.0" encoding="UTF-8"?>
<svg width="150px" height="150px" viewBox="0 0 150 150" version="1.1" xmlns="http://www.w3.org/2000/svg" xmlns:xlink="http://www.w3.org/1999/xlink">
    <!-- Generator: Sketch 52 (66869) - http://www.bohemiancoding.com/sketch -->
    <title>sorry@3x</title>
    <desc>Created with Sketch.</desc>
    <g id="sorry" stroke="none" stroke-width="1" fill="none" fill-rule="evenodd">
        <path d="M74.9567713,135.846752 C108.585257,135.846752 135.846752,108.585429 135.846752,74.956943 C135.846752,41.328457 108.585257,14.0669619 74.9567713,14.0669619 C41.3282856,14.0669619 14.0669619,41.3282854 14.0669619,74.9567713 C14.0669619,108.585257 41.3282854,135.846752 74.9567713,135.846752 Z M74.9567713,149.898154 C33.5678129,149.898154 0.015388255,116.34573 0.015388255,74.9567713 C0.015388255,33.5678129 33.5678128,0.015388255 74.9567713,0.015388255 C116.34573,0.015388255 149.898154,33.5678129 149.898154,74.9567713 C149.898154,116.34573 116.34573,149.898154 74.9567713,149.898154 Z M51.5376535,72.6148423 C58.004571,72.6148423 63.2472983,67.3722867 63.2472983,60.9051975 C63.2472983,54.4381082 58.0047428,49.1955527 51.5376535,49.1955527 C45.0705643,49.1955527 39.8280087,54.4381082 39.8280087,60.9051975 C39.8280087,67.3722867 45.0705643,72.6148423 51.5376535,72.6148423 Z M98.3760607,72.6148423 C104.842978,72.6148423 110.085706,67.3722867 110.085706,60.9051975 C110.085706,54.4381082 104.84315,49.1955527 98.3760607,49.1955527 C91.9089715,49.1955527 86.6664159,54.4381082 86.6664159,60.9051975 C86.6664159,67.3722867 91.9089716,72.6148423 98.3760607,72.6148423 Z M74.9567713,94.6126634 C87.1588393,94.6126634 98.3889379,102.479931 102.576939,113.348095 C102.576939,113.348095 103.299949,118.048264 107.86362,118.048264 C112.427463,118.048264 112.427463,113.348095 112.427463,113.348095 C108.022954,97.322021 92.468356,85.2451193 74.9567713,85.2451193 C57.4220076,85.2451193 42.7004773,97.289399 37.4860799,113.348095 C37.4860799,113.348095 37.1425168,118.048264 42.0887257,118.048264 C47.0351062,118.048264 47.4885545,113.348095 47.4885545,113.348095 C52.3336346,102.15079 63.0546557,94.6126634 74.9567713,94.6126634 Z" fill="#A1BDCE" fill-rule="nonzero"></path>
    </g>
</svg>