<?xml version="1.0" encoding="UTF-8"?>
<svg width="18px" height="16px" viewBox="0 0 18 16" version="1.1" xmlns="http://www.w3.org/2000/svg" xmlns:xlink="http://www.w3.org/1999/xlink">
    <!-- Generator: Sketch 52 (66869) - http://www.bohemiancoding.com/sketch -->
    <title>unkeep</title>
    <desc>Created with Sketch.</desc>
    <g id="unkeep" stroke="none" stroke-width="1" fill="none" fill-rule="evenodd">
        <path d="M13.171637,7.41847235 C13.025369,7.46173341 12.9204877,7.54949302 12.8564693,7.68231841 C12.8012259,7.80715158 12.7623014,7.88934243 12.7384647,7.92886519 C12.7227745,7.95111446 12.7108299,7.96712466 12.7027098,7.97457547 L12.2757717,6.82653319 C12.2757717,6.80307218 12.278915,6.77584711 12.2870876,6.74434234 C12.3034065,6.68192577 12.3109504,6.60777868 12.3109504,6.52128235 C12.3109504,6.41993596 12.2657394,6.32044586 12.1747148,6.22283775 C12.083664,6.12458513 11.9474283,6.09986083 11.7648029,6.1468344 C11.6705826,6.17034696 11.5952483,6.21293771 11.5400573,6.27535429 C11.4847877,6.33838963 11.4364596,6.43169223 11.3975613,6.55714414 C11.3818448,6.58803017 11.3573533,6.65849053 11.3259989,6.7678291 C11.2945922,6.87719348 11.253153,7.01190089 11.2017078,7.17257008 C11.1502101,7.33200179 11.0943119,7.50868118 11.0353227,7.69959186 C10.9762812,7.89114709 10.9185493,8.08455856 10.8632797,8.27982629 C10.7208099,8.74077057 10.5625973,9.25237512 10.3887208,9.81587747 C10.2543187,8.70617201 10.135083,7.70144809 10.0320877,6.80307216 C9.98501691,6.41996171 9.93983205,6.04306457 9.8958783,5.67227759 C9.85257942,5.30030466 9.83688912,4.95800606 9.77158718,4.65770521 C9.67110651,4.19366719 9.64103567,3.51456137 9.00003924,3.51456137 C8.55869444,3.51456137 8.10794594,5.12109868 8.15753141,4.98022953 C8.07025259,5.22618335 7.98328808,5.47827311 7.89637598,5.73655041 C7.69046396,6.33836383 7.45345951,7.01004461 7.18413153,7.75275294 L6.66210883,6.33408412 C6.59837852,6.19380795 6.50360817,6.10174286 6.37706436,6.0584818 C6.25059914,6.01586527 6.10807691,6.09189439 5.94986438,6.28713635 C5.87075812,6.3810577 5.78567961,6.48052206 5.69465503,6.58622547 C5.60363045,6.69187733 5.51480618,6.79567294 5.42755355,6.8970193 C5.34061526,6.99833989 5.25773704,7.08854875 5.17829025,7.16640832 L4.98872337,7.35425104 C4.88575426,7.43953566 4.78095157,7.49880692 4.67421051,7.52974449 C4.56715513,7.56122349 4.42683319,7.57669229 4.25293039,7.57669229 L2.99985585,7.57669229 L2.99985585,8.49118157 C3.18224554,8.49118157 3.94813555,8.48744329 4.09846363,8.47883231 C4.23281328,8.47883231 4.36527698,8.47756902 4.49616902,8.47390809 C4.6264586,8.46895807 4.73126129,8.47143309 4.81070807,8.47883231 C4.96074802,8.49486828 5.09135193,8.4751198 5.20215308,8.42072121 C5.31292803,8.3663484 5.43158741,8.2637903 5.55839316,8.11547037 C5.62149482,8.04503578 5.68459645,7.97333794 5.74832676,7.89921664 C5.81142841,7.82504378 5.8707319,7.75646547 5.92597532,7.69410045 C5.98939129,7.62364009 6.04872099,7.55315396 6.10427872,7.48274517 C6.19938959,7.74844749 6.29015223,7.99068879 6.37703813,8.20936596 C6.44833852,8.39720868 6.51550028,8.58010137 6.57891625,8.76057064 C6.64199169,8.94096254 6.68560491,9.06210898 6.70949395,9.12388104 C6.74870654,9.24871421 6.80429048,9.35993484 6.8755385,9.45756869 C6.94678653,9.55644005 7.05386812,9.60462536 7.19599742,9.60462536 C7.33849347,9.61205038 7.44303422,9.57371356 7.51053648,9.48721723 C7.57769821,9.4006951 7.63108184,9.30803704 7.67060877,9.20669066 L7.74185679,8.99538693 C7.78138372,8.8779788 7.83102158,8.73339712 7.89035129,8.56161618 C7.94968099,8.38983523 8.01681651,8.19830578 8.09217701,7.98697628 C8.1671708,7.77567256 8.24067151,7.56119774 8.31157901,7.34190183 C8.48576993,6.83400978 8.68356176,6.25993708 8.90484973,5.61916811 C9.02350912,6.76785493 9.12645202,7.80717735 9.21341652,8.73710966 C9.25325779,9.1362561 9.29032247,9.52679156 9.32578933,9.90987623 C9.36222536,10.2917492 9.3954395,10.6402353 9.42687246,10.9529112 C9.46202498,11.2939465 9.57185695,12.3023829 10.1996515,12.3023829 C10.7106989,12.2813969 10.7891765,11.6313725 11.0647911,10.7539052 C11.1363272,10.5265139 11.2072347,10.2966992 11.2782208,10.0618571 C11.4445797,9.51441653 11.6303746,8.91750158 11.8369153,8.26874039 C11.9072727,8.4553456 11.9781802,8.63205079 12.050345,8.795195 C12.1056146,8.93606415 12.160858,9.07572158 12.2161014,9.2116407 C12.2713449,9.34882311 12.3108718,9.44400777 12.334106,9.49835478 C12.3585975,9.55393931 12.4037561,9.60093865 12.4710226,9.64051298 C12.5381582,9.67877245 12.6097205,9.69981002 12.6844,9.70349675 C12.7597343,9.70842097 12.8331826,9.69486 12.9041687,9.66271071 C12.9756525,9.63182468 13.0271763,9.57002685 13.0586092,9.47610551 C13.1226277,9.28828857 13.1929851,9.10413258 13.2726676,8.92492662 C13.3511452,8.74450892 13.4070435,8.62343983 13.438424,8.56161623 C13.477951,8.49860669 13.5451389,8.43430806 13.6399092,8.36761178 C13.7353344,8.30207567 13.8376487,8.27245293 13.9487904,8.27987794 C13.9487904,8.27987794 14.5502075,8.26874042 14.9996986,8.26874042 L14.9996986,7.37771213 L13.8540986,7.37771213 C13.8201511,7.3776863 13.3750605,7.35917531 13.171637,7.41847235 Z M12.5149765,0 C11.2248634,0 9.9793328,0.459113792 9.00001308,1.28030047 C8.02032663,0.459113792 6.77511033,0 5.48436865,0 C2.46033554,0 0,2.46910302 0,5.50420917 C0,6.94641635 0.416538966,8.36387345 1.23801292,9.71826941 C1.88838685,10.7909529 2.79679909,11.8278003 3.93750082,12.8016124 C5.203751,13.8816951 6.78231374,14.8962675 8.38350818,15.6599876 C8.40703051,15.6711509 8.42400429,15.6798134 8.43403666,15.6835002 C8.6085681,15.771234 8.80410725,15.8181818 9.00001311,15.8181818 C9.19523791,15.8181818 9.39111758,15.7712598 9.56559663,15.6835002 C9.57565519,15.6797877 9.59262897,15.6711509 9.61586317,15.6599876 C11.2167433,14.8962675 12.7949917,13.8816951 14.0612681,12.8016124 C15.201996,11.8290121 16.1109845,10.7909787 16.7619871,9.7195327 C17.5831729,8.36511094 18,6.94641632 18,5.50420917 C17.9999738,2.46912879 15.5396644,0 12.5149765,0 Z M15.7292837,9.12140602 C15.1429282,10.0877931 14.3161368,11.0282442 13.2720914,11.9192467 C12.0830353,12.9325815 10.5977237,13.8878311 9.08941358,14.6071042 L9.05931652,14.6219027 L9.05428724,14.6244035 L9.00058928,14.6330402 L8.98207005,14.641677 L8.95888825,14.6305395 L8.95134434,14.626827 L8.90987904,14.6070527 C7.40256433,13.8890171 5.91688596,12.9338191 4.72691308,11.9191951 C3.68166272,11.0269294 2.8551857,10.0852666 2.27037568,9.12014276 C1.56004342,7.9498254 1.20003136,6.73317905 1.20003136,5.50415763 C1.20003136,3.11474469 3.12168472,1.17145174 5.48439476,1.17145174 C6.47943099,1.17145174 7.45060434,1.52612539 8.21872085,2.16877642 L9.00030113,2.82372513 L9.7815671,2.16877642 C10.5493955,1.52550664 11.5193377,1.17145174 12.5150026,1.17145174 C14.8773983,1.17145174 16.7996541,3.11474469 16.7996541,5.50415763 C16.7996542,6.73384934 16.4399565,7.95116603 15.7292837,9.12140602 Z" fill="#FFFFFF" fill-rule="nonzero"></path>
    </g>
</svg>