<?xml version="1.0" encoding="UTF-8"?>
<svg width="22px" height="22px" viewBox="0 0 22 22" version="1.1" xmlns="http://www.w3.org/2000/svg" xmlns:xlink="http://www.w3.org/1999/xlink">
    <!-- Generator: Sketch 52 (66869) - http://www.bohemiancoding.com/sketch -->
    <title>upkeep-icon</title>
    <desc>Created with Sketch.</desc>
    <g id="upkeep-icon" stroke="none" stroke-width="1" fill="none" fill-rule="evenodd">
        <path d="M11,22 C4.92486775,22 0,17.0751322 0,11 C0,4.92486775 4.92486775,0 11,0 C17.0751322,0 22,4.92486775 22,11 C22,17.0751322 17.0751322,22 11,22 Z M13.3433176,6 C12.4832423,6 11.6528885,6.31512244 11.0000087,6.87876124 C10.3468844,6.31512244 9.51674022,6 8.65624577,6 C6.64022369,6 5,7.69472095 5,9.77793011 C5,10.7678194 5.27769264,11.740721 5.82534194,12.6703393 C6.25892456,13.4065982 6.86453273,14.1182603 7.62500055,14.7866568 C8.46916734,15.5279944 9.52154249,16.2243675 10.5890055,16.7485629 C10.604687,16.7562251 10.6160029,16.7621708 10.6226911,16.7647013 C10.7390454,16.8249192 10.8694048,16.8571429 11.0000087,16.8571429 C11.1301586,16.8571429 11.2607451,16.824937 11.3770644,16.7647013 C11.3837701,16.7621531 11.395086,16.7562251 11.4105754,16.7485629 C12.4778289,16.2243675 13.5299945,15.5279944 14.3741787,14.7866568 C15.134664,14.119092 15.7406563,13.4066159 16.1746581,12.6712064 C16.7221153,11.7415704 17,10.7678194 17,9.77793011 C16.9999825,7.69473864 15.3597763,6 13.3433176,6 Z" id="Combined-Shape" fill="#65C0F4"></path>
        <path d="M15.4861891,12.2606695 C15.0952855,12.9239697 14.5440912,13.5694681 13.8480609,14.1810264 C13.0553569,14.8765502 12.0651491,15.5322059 11.0596091,16.0258942 L11.0395443,16.0360514 L11.0361915,16.0377679 L11.0003929,16.0436959 L10.9880467,16.0496239 L10.9725922,16.0419795 L10.9675629,16.0394313 L10.9399194,16.0258588 C9.93504288,15.5330199 8.94459064,14.8773996 8.15127539,14.1809911 C7.45444181,13.5685656 6.90345714,12.9222355 6.51358379,12.2598024 C6.04002895,11.4565304 5.80002091,10.6214595 5.80002091,9.77789473 C5.80002091,8.13787074 7.08112315,6.80405062 8.65626317,6.80405062 C9.31962066,6.80405062 9.96706956,7.04748836 10.4791472,7.48858545 L11.0002008,7.93812333 L11.5210447,7.48858545 C12.0329303,7.04706367 12.6795585,6.80405062 13.3433351,6.80405062 C14.9182655,6.80405062 16.1997694,8.13787074 16.1997694,9.77789473 C16.1997695,10.6219196 15.959971,11.4574506 15.4861891,12.2606695 Z M13.7810913,11.091825 C13.6835793,11.1215182 13.6136585,11.1817538 13.5709795,11.2729213 C13.5341506,11.3586032 13.5082009,11.4150166 13.4923098,11.4421439 C13.4818496,11.4574152 13.4738866,11.4684041 13.4684732,11.4735181 L13.1838478,10.6855351 C13.1838478,10.6694321 13.1859433,10.6507456 13.1913917,10.6291217 C13.202271,10.5862807 13.2073003,10.5353883 13.2073003,10.4760197 C13.2073003,10.4064585 13.1771596,10.3381714 13.1164765,10.271176 C13.055776,10.2037382 12.9649522,10.1867682 12.8432019,10.2190095 C12.7803884,10.2351478 12.7301656,10.2643809 12.6933715,10.3072218 C12.6565251,10.3504875 12.6243064,10.4145277 12.5983742,10.5006342 C12.5878965,10.5218335 12.5715689,10.5701955 12.5506659,10.6452423 C12.5297281,10.7203069 12.502102,10.8127661 12.4678052,10.9230448 C12.4334734,11.0324741 12.3962079,11.1537418 12.3568818,11.2847773 C12.3175208,11.4162553 12.2790329,11.5490074 12.2421865,11.6830335 C12.1472066,11.9994123 12.0417316,12.3505629 11.9258138,12.7373346 C11.8362125,11.9756649 11.756722,11.2860514 11.6880585,10.6694321 C11.6566779,10.4064762 11.6265547,10.1477849 11.5972522,9.89328741 C11.5683863,9.63797594 11.5579261,9.40303207 11.5143915,9.19691425 C11.4474043,8.87841197 11.4273571,8.41229336 11.0000262,8.41229336 C10.7057963,8.41229336 10.4052973,9.51497413 10.4383543,9.41828562 C10.3801684,9.58710121 10.3221921,9.76012834 10.2642507,9.93740242 C10.126976,10.3504698 9.96897301,10.811492 9.78942102,11.3212656 L9.44140588,10.3475323 C9.39891901,10.2512508 9.33573878,10.18806 9.25137624,10.1583668 C9.16706609,10.1291161 9.07205127,10.1813003 8.96657625,10.3153087 C8.91383874,10.3797736 8.85711974,10.4480431 8.79643669,10.5205948 C8.73575363,10.5931112 8.67653745,10.6643535 8.61836903,10.7339147 C8.56041017,10.8034582 8.50515803,10.865375 8.4521935,10.9188156 L8.32581558,11.0477454 C8.25716951,11.1062823 8.18730105,11.1469644 8.11614034,11.168199 C8.04477009,11.1898053 7.95122212,11.2004226 7.83528693,11.2004226 L6.9999039,11.2004226 L6.9999039,11.8281016 C7.12149703,11.8281016 7.63209037,11.8255358 7.73230908,11.8196255 C7.82187552,11.8196255 7.91018465,11.8187584 7.99744601,11.8162456 C8.08430573,11.8128481 8.15417419,11.8145468 8.20713872,11.8196255 C8.30716535,11.8306321 8.39423462,11.8170773 8.46810205,11.7797397 C8.54195202,11.7424198 8.62105828,11.6720268 8.70559544,11.5702243 C8.74766321,11.5218801 8.78973097,11.4726687 8.83221784,11.421794 C8.87428561,11.3708839 8.91382127,11.3238137 8.95065021,11.2810082 C8.99292752,11.2326462 9.03248066,11.1842666 9.06951914,11.13594 C9.13292639,11.3183104 9.19343482,11.4845779 9.25135875,11.6346715 C9.29889235,11.7636014 9.34366685,11.8891336 9.38594416,12.0130025 C9.42799446,12.1368183 9.45706994,12.2199697 9.47299597,12.2623683 C9.4991377,12.3480501 9.53619365,12.4243888 9.58369234,12.4914018 C9.63119102,12.5592643 9.70257874,12.5923373 9.79733162,12.5923373 C9.89232898,12.5974336 9.96202281,12.5711203 10.0070243,12.5117517 C10.0517988,12.4523654 10.0873879,12.3887676 10.1137392,12.3192064 L10.1612379,12.1741736 C10.1875891,12.0935881 10.2206811,11.9943514 10.2602342,11.8764459 C10.2997873,11.7585404 10.3445443,11.6270802 10.3947847,11.4820297 C10.4447805,11.3369969 10.493781,11.1897876 10.5410527,11.0392692 C10.65718,10.6906668 10.7890412,10.2966399 10.9365665,9.8568346 C11.0156727,10.64526 11.0843013,11.3586209 11.1422777,11.9968996 C11.1688385,12.2708622 11.1935483,12.5389144 11.2171929,12.8018527 C11.2414836,13.0639592 11.2636263,13.30315 11.2845816,13.5177617 C11.3080167,13.7518385 11.381238,14.4440001 11.7997677,14.4440001 C12.1404659,14.4295959 12.1927843,13.9834379 12.3765274,13.3811697 C12.4242181,13.2250949 12.4714898,13.0673567 12.5188139,12.9061679 C12.6297198,12.5304205 12.7535831,12.1207154 12.8912769,11.6754244 C12.9381818,11.8035049 12.9854535,11.9247902 13.0335633,12.0367677 C13.0704097,12.1334562 13.1072387,12.229313 13.1440676,12.322604 C13.1808966,12.416762 13.2072479,12.482094 13.2227373,12.5193962 C13.239065,12.5575478 13.2691708,12.5898068 13.3140151,12.6169695 C13.3587721,12.6432297 13.4064803,12.6576693 13.4562666,12.6601997 C13.5064895,12.6635796 13.5554551,12.6542717 13.6027791,12.6322054 C13.650435,12.6110061 13.6847842,12.5685899 13.7057395,12.504125 C13.7484184,12.3752128 13.7953234,12.2488135 13.8484451,12.1258117 C13.9007635,12.0019782 13.938029,11.9188799 13.9589494,11.876446 C13.9853006,11.833198 14.0300926,11.7890653 14.0932728,11.7432869 C14.1568896,11.6983048 14.2250991,11.6779726 14.2991936,11.6830689 C14.2991936,11.6830689 14.7001383,11.6754245 14.9997991,11.6754245 L14.9997991,11.0638484 L14.2360657,11.0638484 C14.2134341,11.0638307 13.916707,11.0511253 13.7810913,11.091825 Z" id="Combined-Shape" fill="#65C0F4"></path>
    </g>
</svg>